<svg xmlns="http://www.w3.org/2000/svg" viewBox="0 0 1600 900" fill="none">
<title>Flow acceleration and electron heating under stronger drive</title>
<desc>Two possible and coexisting changes under stronger electrical drive. Both panels show the same smooth constriction and orderly illustrative current streamlines. Longer centerline arrows mark larger axial current density in the narrow region. A warm decorative fill and a thermometer symbolize electron heating, not a temperature map. Arrows indicate conventional current, opposite to mean electron motion. No nonlinear current-voltage curve or turbulence is implied.</desc>
<defs>
  <linearGradient id="cool-channel" x1="0" y1="450" x2="0" y2="750" gradientUnits="userSpaceOnUse">
    <stop stop-color="#eaf1f2"/><stop offset=".5" stop-color="#d7e9ec"/><stop offset="1" stop-color="#eaf1f2"/>
  </linearGradient>
  <linearGradient id="warm-channel" x1="0" y1="450" x2="0" y2="750" gradientUnits="userSpaceOnUse">
    <stop stop-color="#f1e9df"/><stop offset=".5" stop-color="#e9d9c4"/><stop offset="1" stop-color="#f1e9df"/>
  </linearGradient>
</defs>
<g font-family="Segoe UI, Arial, sans-serif">
<rect width="1600" height="900" fill="#f1f5f3"/>
<text x="800" y="122" text-anchor="middle" font-size="42" font-weight="500" fill="#385663">Stronger drive</text>
<g id="possible-pathways" fill="none" stroke="#9aaeb3" stroke-width="3.5" stroke-linecap="round">
<path d="M800 156 V190 M400 219 V190 H1200 V219"/>
</g>
<polygon points="400.0000,232.0000 393.7000,217.0000 406.3000,217.0000" fill="#9aaeb3"/>
<polygon points="1200.0000,232.0000 1193.7000,217.0000 1206.3000,217.0000" fill="#9aaeb3"/>
<text x="400" y="306" text-anchor="middle" font-size="40" font-weight="500" fill="#385663">Flow acceleration</text>
<text x="1200" y="306" text-anchor="middle" font-size="40" font-weight="500" fill="#385663">Electron heating</text>
<g id="channel-0">
<path d="M90.0000,450.1919 L92.5833,450.2126 L95.1667,450.2352 L97.7500,450.2600 L100.3333,450.2873 L102.9167,450.3170 L105.5000,450.3496 L108.0833,450.3852 L110.6667,450.4241 L113.2500,450.4664 L115.8333,450.5126 L118.4167,450.5629 L121.0000,450.6175 L123.5833,450.6769 L126.1667,450.7414 L128.7500,450.8113 L131.3333,450.8871 L133.9167,450.9691 L136.5000,451.0578 L139.0833,451.1536 L141.6667,451.2570 L144.2500,451.3685 L146.8333,451.4886 L149.4167,451.6179 L152.0000,451.7569 L154.5833,451.9062 L157.1667,452.0665 L159.7500,452.2383 L162.3333,452.4224 L164.9167,452.6193 L167.5000,452.8298 L170.0833,453.0546 L172.6667,453.2945 L175.2500,453.5502 L177.8333,453.8225 L180.4167,454.1121 L183.0000,454.4199 L185.5833,454.7467 L188.1667,455.0932 L190.7500,455.4605 L193.3333,455.8492 L195.9167,456.2602 L198.5000,456.6944 L201.0833,457.1525 L203.6667,457.6356 L206.2500,458.1442 L208.8333,458.6794 L211.4167,459.2418 L214.0000,459.8322 L216.5833,460.4515 L219.1667,461.1002 L221.7500,461.7792 L224.3333,462.4890 L226.9167,463.2303 L229.5000,464.0036 L232.0833,464.8094 L234.6667,465.6483 L237.2500,466.5206 L239.8333,467.4265 L242.4167,468.3665 L245.0000,469.3407 L247.5833,470.3491 L250.1667,471.3918 L252.7500,472.4688 L255.3333,473.5798 L257.9167,474.7246 L260.5000,475.9029 L263.0833,477.1141 L265.6667,478.3578 L268.2500,479.6332 L270.8333,480.9394 L273.4167,482.2757 L276.0000,483.6410 L278.5833,485.0341 L281.1667,486.4537 L283.7500,487.8984 L286.3333,489.3668 L288.9167,490.8571 L291.5000,492.3677 L294.0833,493.8966 L296.6667,495.4418 L299.2500,497.0012 L301.8333,498.5727 L304.4167,500.1538 L307.0000,501.7422 L309.5833,503.3353 L312.1667,504.9305 L314.7500,506.5251 L317.3333,508.1164 L319.9167,509.7014 L322.5000,511.2773 L325.0833,512.8411 L327.6667,514.3898 L330.2500,515.9202 L332.8333,517.4295 L335.4167,518.9144 L338.0000,520.3719 L340.5833,521.7988 L343.1667,523.1921 L345.7500,524.5488 L348.3333,525.8657 L350.9167,527.1400 L353.5000,528.3688 L356.0833,529.5491 L358.6667,530.6783 L361.2500,531.7536 L363.8333,532.7725 L366.4167,533.7326 L369.0000,534.6314 L371.5833,535.4669 L374.1667,536.2369 L376.7500,536.9396 L379.3333,537.5732 L381.9167,538.1360 L384.5000,538.6267 L387.0833,539.0441 L389.6667,539.3871 L392.2500,539.6547 L394.8333,539.8464 L397.4167,539.9616 L400.0000,540.0000 L402.5833,539.9616 L405.1667,539.8464 L407.7500,539.6547 L410.3333,539.3871 L412.9167,539.0441 L415.5000,538.6267 L418.0833,538.1360 L420.6667,537.5732 L423.2500,536.9396 L425.8333,536.2369 L428.4167,535.4669 L431.0000,534.6314 L433.5833,533.7326 L436.1667,532.7725 L438.7500,531.7536 L441.3333,530.6783 L443.9167,529.5491 L446.5000,528.3688 L449.0833,527.1400 L451.6667,525.8657 L454.2500,524.5488 L456.8333,523.1921 L459.4167,521.7988 L462.0000,520.3719 L464.5833,518.9144 L467.1667,517.4295 L469.7500,515.9202 L472.3333,514.3898 L474.9167,512.8411 L477.5000,511.2773 L480.0833,509.7014 L482.6667,508.1164 L485.2500,506.5251 L487.8333,504.9305 L490.4167,503.3353 L493.0000,501.7422 L495.5833,500.1538 L498.1667,498.5727 L500.7500,497.0012 L503.3333,495.4418 L505.9167,493.8966 L508.5000,492.3677 L511.0833,490.8571 L513.6667,489.3668 L516.2500,487.8984 L518.8333,486.4537 L521.4167,485.0341 L524.0000,483.6410 L526.5833,482.2757 L529.1667,480.9394 L531.7500,479.6332 L534.3333,478.3578 L536.9167,477.1141 L539.5000,475.9029 L542.0833,474.7246 L544.6667,473.5798 L547.2500,472.4688 L549.8333,471.3918 L552.4167,470.3491 L555.0000,469.3407 L557.5833,468.3665 L560.1667,467.4265 L562.7500,466.5206 L565.3333,465.6483 L567.9167,464.8094 L570.5000,464.0036 L573.0833,463.2303 L575.6667,462.4890 L578.2500,461.7792 L580.8333,461.1002 L583.4167,460.4515 L586.0000,459.8322 L588.5833,459.2418 L591.1667,458.6794 L593.7500,458.1442 L596.3333,457.6356 L598.9167,457.1525 L601.5000,456.6944 L604.0833,456.2602 L606.6667,455.8492 L609.2500,455.4605 L611.8333,455.0932 L614.4167,454.7467 L617.0000,454.4199 L619.5833,454.1121 L622.1667,453.8225 L624.7500,453.5502 L627.3333,453.2945 L629.9167,453.0546 L632.5000,452.8298 L635.0833,452.6193 L637.6667,452.4224 L640.2500,452.2383 L642.8333,452.0665 L645.4167,451.9062 L648.0000,451.7569 L650.5833,451.6179 L653.1667,451.4886 L655.7500,451.3685 L658.3333,451.2570 L660.9167,451.1536 L663.5000,451.0578 L666.0833,450.9691 L668.6667,450.8871 L671.2500,450.8113 L673.8333,450.7414 L676.4167,450.6769 L679.0000,450.6175 L681.5833,450.5629 L684.1667,450.5126 L686.7500,450.4664 L689.3333,450.4241 L691.9167,450.3852 L694.5000,450.3496 L697.0833,450.3170 L699.6667,450.2873 L702.2500,450.2600 L704.8333,450.2352 L707.4167,450.2126 L710.0000,450.1919 L710.0000,749.8081 L707.4167,749.7874 L704.8333,749.7648 L702.2500,749.7400 L699.6667,749.7127 L697.0833,749.6830 L694.5000,749.6504 L691.9167,749.6148 L689.3333,749.5759 L686.7500,749.5336 L684.1667,749.4874 L681.5833,749.4371 L679.0000,749.3825 L676.4167,749.3231 L673.8333,749.2586 L671.2500,749.1887 L668.6667,749.1129 L666.0833,749.0309 L663.5000,748.9422 L660.9167,748.8464 L658.3333,748.7430 L655.7500,748.6315 L653.1667,748.5114 L650.5833,748.3821 L648.0000,748.2431 L645.4167,748.0938 L642.8333,747.9335 L640.2500,747.7617 L637.6667,747.5776 L635.0833,747.3807 L632.5000,747.1702 L629.9167,746.9454 L627.3333,746.7055 L624.7500,746.4498 L622.1667,746.1775 L619.5833,745.8879 L617.0000,745.5801 L614.4167,745.2533 L611.8333,744.9068 L609.2500,744.5395 L606.6667,744.1508 L604.0833,743.7398 L601.5000,743.3056 L598.9167,742.8475 L596.3333,742.3644 L593.7500,741.8558 L591.1667,741.3206 L588.5833,740.7582 L586.0000,740.1678 L583.4167,739.5485 L580.8333,738.8998 L578.2500,738.2208 L575.6667,737.5110 L573.0833,736.7697 L570.5000,735.9964 L567.9167,735.1906 L565.3333,734.3517 L562.7500,733.4794 L560.1667,732.5735 L557.5833,731.6335 L555.0000,730.6593 L552.4167,729.6509 L549.8333,728.6082 L547.2500,727.5312 L544.6667,726.4202 L542.0833,725.2754 L539.5000,724.0971 L536.9167,722.8859 L534.3333,721.6422 L531.7500,720.3668 L529.1667,719.0606 L526.5833,717.7243 L524.0000,716.3590 L521.4167,714.9659 L518.8333,713.5463 L516.2500,712.1016 L513.6667,710.6332 L511.0833,709.1429 L508.5000,707.6323 L505.9167,706.1034 L503.3333,704.5582 L500.7500,702.9988 L498.1667,701.4273 L495.5833,699.8462 L493.0000,698.2578 L490.4167,696.6647 L487.8333,695.0695 L485.2500,693.4749 L482.6667,691.8836 L480.0833,690.2986 L477.5000,688.7227 L474.9167,687.1589 L472.3333,685.6102 L469.7500,684.0798 L467.1667,682.5705 L464.5833,681.0856 L462.0000,679.6281 L459.4167,678.2012 L456.8333,676.8079 L454.2500,675.4512 L451.6667,674.1343 L449.0833,672.8600 L446.5000,671.6312 L443.9167,670.4509 L441.3333,669.3217 L438.7500,668.2464 L436.1667,667.2275 L433.5833,666.2674 L431.0000,665.3686 L428.4167,664.5331 L425.8333,663.7631 L423.2500,663.0604 L420.6667,662.4268 L418.0833,661.8640 L415.5000,661.3733 L412.9167,660.9559 L410.3333,660.6129 L407.7500,660.3453 L405.1667,660.1536 L402.5833,660.0384 L400.0000,660.0000 L397.4167,660.0384 L394.8333,660.1536 L392.2500,660.3453 L389.6667,660.6129 L387.0833,660.9559 L384.5000,661.3733 L381.9167,661.8640 L379.3333,662.4268 L376.7500,663.0604 L374.1667,663.7631 L371.5833,664.5331 L369.0000,665.3686 L366.4167,666.2674 L363.8333,667.2275 L361.2500,668.2464 L358.6667,669.3217 L356.0833,670.4509 L353.5000,671.6312 L350.9167,672.8600 L348.3333,674.1343 L345.7500,675.4512 L343.1667,676.8079 L340.5833,678.2012 L338.0000,679.6281 L335.4167,681.0856 L332.8333,682.5705 L330.2500,684.0798 L327.6667,685.6102 L325.0833,687.1589 L322.5000,688.7227 L319.9167,690.2986 L317.3333,691.8836 L314.7500,693.4749 L312.1667,695.0695 L309.5833,696.6647 L307.0000,698.2578 L304.4167,699.8462 L301.8333,701.4273 L299.2500,702.9988 L296.6667,704.5582 L294.0833,706.1034 L291.5000,707.6323 L288.9167,709.1429 L286.3333,710.6332 L283.7500,712.1016 L281.1667,713.5463 L278.5833,714.9659 L276.0000,716.3590 L273.4167,717.7243 L270.8333,719.0606 L268.2500,720.3668 L265.6667,721.6422 L263.0833,722.8859 L260.5000,724.0971 L257.9167,725.2754 L255.3333,726.4202 L252.7500,727.5312 L250.1667,728.6082 L247.5833,729.6509 L245.0000,730.6593 L242.4167,731.6335 L239.8333,732.5735 L237.2500,733.4794 L234.6667,734.3517 L232.0833,735.1906 L229.5000,735.9964 L226.9167,736.7697 L224.3333,737.5110 L221.7500,738.2208 L219.1667,738.8998 L216.5833,739.5485 L214.0000,740.1678 L211.4167,740.7582 L208.8333,741.3206 L206.2500,741.8558 L203.6667,742.3644 L201.0833,742.8475 L198.5000,743.3056 L195.9167,743.7398 L193.3333,744.1508 L190.7500,744.5395 L188.1667,744.9068 L185.5833,745.2533 L183.0000,745.5801 L180.4167,745.8879 L177.8333,746.1775 L175.2500,746.4498 L172.6667,746.7055 L170.0833,746.9454 L167.5000,747.1702 L164.9167,747.3807 L162.3333,747.5776 L159.7500,747.7617 L157.1667,747.9335 L154.5833,748.0938 L152.0000,748.2431 L149.4167,748.3821 L146.8333,748.5114 L144.2500,748.6315 L141.6667,748.7430 L139.0833,748.8464 L136.5000,748.9422 L133.9167,749.0309 L131.3333,749.1129 L128.7500,749.1887 L126.1667,749.2586 L123.5833,749.3231 L121.0000,749.3825 L118.4167,749.4371 L115.8333,749.4874 L113.2500,749.5336 L110.6667,749.5759 L108.0833,749.6148 L105.5000,749.6504 L102.9167,749.6830 L100.3333,749.7127 L97.7500,749.7400 L95.1667,749.7648 L92.5833,749.7874 L90.0000,749.8081 L90.0000,450.1919" fill="url(#cool-channel)" stroke="none"/>
<path d="M90.0000,450.1919 L92.5833,450.2126 L95.1667,450.2352 L97.7500,450.2600 L100.3333,450.2873 L102.9167,450.3170 L105.5000,450.3496 L108.0833,450.3852 L110.6667,450.4241 L113.2500,450.4664 L115.8333,450.5126 L118.4167,450.5629 L121.0000,450.6175 L123.5833,450.6769 L126.1667,450.7414 L128.7500,450.8113 L131.3333,450.8871 L133.9167,450.9691 L136.5000,451.0578 L139.0833,451.1536 L141.6667,451.2570 L144.2500,451.3685 L146.8333,451.4886 L149.4167,451.6179 L152.0000,451.7569 L154.5833,451.9062 L157.1667,452.0665 L159.7500,452.2383 L162.3333,452.4224 L164.9167,452.6193 L167.5000,452.8298 L170.0833,453.0546 L172.6667,453.2945 L175.2500,453.5502 L177.8333,453.8225 L180.4167,454.1121 L183.0000,454.4199 L185.5833,454.7467 L188.1667,455.0932 L190.7500,455.4605 L193.3333,455.8492 L195.9167,456.2602 L198.5000,456.6944 L201.0833,457.1525 L203.6667,457.6356 L206.2500,458.1442 L208.8333,458.6794 L211.4167,459.2418 L214.0000,459.8322 L216.5833,460.4515 L219.1667,461.1002 L221.7500,461.7792 L224.3333,462.4890 L226.9167,463.2303 L229.5000,464.0036 L232.0833,464.8094 L234.6667,465.6483 L237.2500,466.5206 L239.8333,467.4265 L242.4167,468.3665 L245.0000,469.3407 L247.5833,470.3491 L250.1667,471.3918 L252.7500,472.4688 L255.3333,473.5798 L257.9167,474.7246 L260.5000,475.9029 L263.0833,477.1141 L265.6667,478.3578 L268.2500,479.6332 L270.8333,480.9394 L273.4167,482.2757 L276.0000,483.6410 L278.5833,485.0341 L281.1667,486.4537 L283.7500,487.8984 L286.3333,489.3668 L288.9167,490.8571 L291.5000,492.3677 L294.0833,493.8966 L296.6667,495.4418 L299.2500,497.0012 L301.8333,498.5727 L304.4167,500.1538 L307.0000,501.7422 L309.5833,503.3353 L312.1667,504.9305 L314.7500,506.5251 L317.3333,508.1164 L319.9167,509.7014 L322.5000,511.2773 L325.0833,512.8411 L327.6667,514.3898 L330.2500,515.9202 L332.8333,517.4295 L335.4167,518.9144 L338.0000,520.3719 L340.5833,521.7988 L343.1667,523.1921 L345.7500,524.5488 L348.3333,525.8657 L350.9167,527.1400 L353.5000,528.3688 L356.0833,529.5491 L358.6667,530.6783 L361.2500,531.7536 L363.8333,532.7725 L366.4167,533.7326 L369.0000,534.6314 L371.5833,535.4669 L374.1667,536.2369 L376.7500,536.9396 L379.3333,537.5732 L381.9167,538.1360 L384.5000,538.6267 L387.0833,539.0441 L389.6667,539.3871 L392.2500,539.6547 L394.8333,539.8464 L397.4167,539.9616 L400.0000,540.0000 L402.5833,539.9616 L405.1667,539.8464 L407.7500,539.6547 L410.3333,539.3871 L412.9167,539.0441 L415.5000,538.6267 L418.0833,538.1360 L420.6667,537.5732 L423.2500,536.9396 L425.8333,536.2369 L428.4167,535.4669 L431.0000,534.6314 L433.5833,533.7326 L436.1667,532.7725 L438.7500,531.7536 L441.3333,530.6783 L443.9167,529.5491 L446.5000,528.3688 L449.0833,527.1400 L451.6667,525.8657 L454.2500,524.5488 L456.8333,523.1921 L459.4167,521.7988 L462.0000,520.3719 L464.5833,518.9144 L467.1667,517.4295 L469.7500,515.9202 L472.3333,514.3898 L474.9167,512.8411 L477.5000,511.2773 L480.0833,509.7014 L482.6667,508.1164 L485.2500,506.5251 L487.8333,504.9305 L490.4167,503.3353 L493.0000,501.7422 L495.5833,500.1538 L498.1667,498.5727 L500.7500,497.0012 L503.3333,495.4418 L505.9167,493.8966 L508.5000,492.3677 L511.0833,490.8571 L513.6667,489.3668 L516.2500,487.8984 L518.8333,486.4537 L521.4167,485.0341 L524.0000,483.6410 L526.5833,482.2757 L529.1667,480.9394 L531.7500,479.6332 L534.3333,478.3578 L536.9167,477.1141 L539.5000,475.9029 L542.0833,474.7246 L544.6667,473.5798 L547.2500,472.4688 L549.8333,471.3918 L552.4167,470.3491 L555.0000,469.3407 L557.5833,468.3665 L560.1667,467.4265 L562.7500,466.5206 L565.3333,465.6483 L567.9167,464.8094 L570.5000,464.0036 L573.0833,463.2303 L575.6667,462.4890 L578.2500,461.7792 L580.8333,461.1002 L583.4167,460.4515 L586.0000,459.8322 L588.5833,459.2418 L591.1667,458.6794 L593.7500,458.1442 L596.3333,457.6356 L598.9167,457.1525 L601.5000,456.6944 L604.0833,456.2602 L606.6667,455.8492 L609.2500,455.4605 L611.8333,455.0932 L614.4167,454.7467 L617.0000,454.4199 L619.5833,454.1121 L622.1667,453.8225 L624.7500,453.5502 L627.3333,453.2945 L629.9167,453.0546 L632.5000,452.8298 L635.0833,452.6193 L637.6667,452.4224 L640.2500,452.2383 L642.8333,452.0665 L645.4167,451.9062 L648.0000,451.7569 L650.5833,451.6179 L653.1667,451.4886 L655.7500,451.3685 L658.3333,451.2570 L660.9167,451.1536 L663.5000,451.0578 L666.0833,450.9691 L668.6667,450.8871 L671.2500,450.8113 L673.8333,450.7414 L676.4167,450.6769 L679.0000,450.6175 L681.5833,450.5629 L684.1667,450.5126 L686.7500,450.4664 L689.3333,450.4241 L691.9167,450.3852 L694.5000,450.3496 L697.0833,450.3170 L699.6667,450.2873 L702.2500,450.2600 L704.8333,450.2352 L707.4167,450.2126 L710.0000,450.1919" fill="none" stroke="#8aa4ac" stroke-width="4" stroke-linecap="round"/>
<path d="M90.0000,749.8081 L92.5833,749.7874 L95.1667,749.7648 L97.7500,749.7400 L100.3333,749.7127 L102.9167,749.6830 L105.5000,749.6504 L108.0833,749.6148 L110.6667,749.5759 L113.2500,749.5336 L115.8333,749.4874 L118.4167,749.4371 L121.0000,749.3825 L123.5833,749.3231 L126.1667,749.2586 L128.7500,749.1887 L131.3333,749.1129 L133.9167,749.0309 L136.5000,748.9422 L139.0833,748.8464 L141.6667,748.7430 L144.2500,748.6315 L146.8333,748.5114 L149.4167,748.3821 L152.0000,748.2431 L154.5833,748.0938 L157.1667,747.9335 L159.7500,747.7617 L162.3333,747.5776 L164.9167,747.3807 L167.5000,747.1702 L170.0833,746.9454 L172.6667,746.7055 L175.2500,746.4498 L177.8333,746.1775 L180.4167,745.8879 L183.0000,745.5801 L185.5833,745.2533 L188.1667,744.9068 L190.7500,744.5395 L193.3333,744.1508 L195.9167,743.7398 L198.5000,743.3056 L201.0833,742.8475 L203.6667,742.3644 L206.2500,741.8558 L208.8333,741.3206 L211.4167,740.7582 L214.0000,740.1678 L216.5833,739.5485 L219.1667,738.8998 L221.7500,738.2208 L224.3333,737.5110 L226.9167,736.7697 L229.5000,735.9964 L232.0833,735.1906 L234.6667,734.3517 L237.2500,733.4794 L239.8333,732.5735 L242.4167,731.6335 L245.0000,730.6593 L247.5833,729.6509 L250.1667,728.6082 L252.7500,727.5312 L255.3333,726.4202 L257.9167,725.2754 L260.5000,724.0971 L263.0833,722.8859 L265.6667,721.6422 L268.2500,720.3668 L270.8333,719.0606 L273.4167,717.7243 L276.0000,716.3590 L278.5833,714.9659 L281.1667,713.5463 L283.7500,712.1016 L286.3333,710.6332 L288.9167,709.1429 L291.5000,707.6323 L294.0833,706.1034 L296.6667,704.5582 L299.2500,702.9988 L301.8333,701.4273 L304.4167,699.8462 L307.0000,698.2578 L309.5833,696.6647 L312.1667,695.0695 L314.7500,693.4749 L317.3333,691.8836 L319.9167,690.2986 L322.5000,688.7227 L325.0833,687.1589 L327.6667,685.6102 L330.2500,684.0798 L332.8333,682.5705 L335.4167,681.0856 L338.0000,679.6281 L340.5833,678.2012 L343.1667,676.8079 L345.7500,675.4512 L348.3333,674.1343 L350.9167,672.8600 L353.5000,671.6312 L356.0833,670.4509 L358.6667,669.3217 L361.2500,668.2464 L363.8333,667.2275 L366.4167,666.2674 L369.0000,665.3686 L371.5833,664.5331 L374.1667,663.7631 L376.7500,663.0604 L379.3333,662.4268 L381.9167,661.8640 L384.5000,661.3733 L387.0833,660.9559 L389.6667,660.6129 L392.2500,660.3453 L394.8333,660.1536 L397.4167,660.0384 L400.0000,660.0000 L402.5833,660.0384 L405.1667,660.1536 L407.7500,660.3453 L410.3333,660.6129 L412.9167,660.9559 L415.5000,661.3733 L418.0833,661.8640 L420.6667,662.4268 L423.2500,663.0604 L425.8333,663.7631 L428.4167,664.5331 L431.0000,665.3686 L433.5833,666.2674 L436.1667,667.2275 L438.7500,668.2464 L441.3333,669.3217 L443.9167,670.4509 L446.5000,671.6312 L449.0833,672.8600 L451.6667,674.1343 L454.2500,675.4512 L456.8333,676.8079 L459.4167,678.2012 L462.0000,679.6281 L464.5833,681.0856 L467.1667,682.5705 L469.7500,684.0798 L472.3333,685.6102 L474.9167,687.1589 L477.5000,688.7227 L480.0833,690.2986 L482.6667,691.8836 L485.2500,693.4749 L487.8333,695.0695 L490.4167,696.6647 L493.0000,698.2578 L495.5833,699.8462 L498.1667,701.4273 L500.7500,702.9988 L503.3333,704.5582 L505.9167,706.1034 L508.5000,707.6323 L511.0833,709.1429 L513.6667,710.6332 L516.2500,712.1016 L518.8333,713.5463 L521.4167,714.9659 L524.0000,716.3590 L526.5833,717.7243 L529.1667,719.0606 L531.7500,720.3668 L534.3333,721.6422 L536.9167,722.8859 L539.5000,724.0971 L542.0833,725.2754 L544.6667,726.4202 L547.2500,727.5312 L549.8333,728.6082 L552.4167,729.6509 L555.0000,730.6593 L557.5833,731.6335 L560.1667,732.5735 L562.7500,733.4794 L565.3333,734.3517 L567.9167,735.1906 L570.5000,735.9964 L573.0833,736.7697 L575.6667,737.5110 L578.2500,738.2208 L580.8333,738.8998 L583.4167,739.5485 L586.0000,740.1678 L588.5833,740.7582 L591.1667,741.3206 L593.7500,741.8558 L596.3333,742.3644 L598.9167,742.8475 L601.5000,743.3056 L604.0833,743.7398 L606.6667,744.1508 L609.2500,744.5395 L611.8333,744.9068 L614.4167,745.2533 L617.0000,745.5801 L619.5833,745.8879 L622.1667,746.1775 L624.7500,746.4498 L627.3333,746.7055 L629.9167,746.9454 L632.5000,747.1702 L635.0833,747.3807 L637.6667,747.5776 L640.2500,747.7617 L642.8333,747.9335 L645.4167,748.0938 L648.0000,748.2431 L650.5833,748.3821 L653.1667,748.5114 L655.7500,748.6315 L658.3333,748.7430 L660.9167,748.8464 L663.5000,748.9422 L666.0833,749.0309 L668.6667,749.1129 L671.2500,749.1887 L673.8333,749.2586 L676.4167,749.3231 L679.0000,749.3825 L681.5833,749.4371 L684.1667,749.4874 L686.7500,749.5336 L689.3333,749.5759 L691.9167,749.6148 L694.5000,749.6504 L697.0833,749.6830 L699.6667,749.7127 L702.2500,749.7400 L704.8333,749.7648 L707.4167,749.7874 L710.0000,749.8081" fill="none" stroke="#8aa4ac" stroke-width="4" stroke-linecap="round"/>
</g>
<g id="current-0" fill="none" stroke="#286b8a" stroke-width="4" stroke-linecap="round">
<path d="M90.0000,489.1420 L92.5833,489.1573 L95.1667,489.1741 L97.7500,489.1924 L100.3333,489.2126 L102.9167,489.2346 L105.5000,489.2587 L108.0833,489.2851 L110.6667,489.3138 L113.2500,489.3452 L115.8333,489.3793 L118.4167,489.4165 L121.0000,489.4570 L123.5833,489.5009 L126.1667,489.5486 L128.7500,489.6004 L131.3333,489.6564 L133.9167,489.7171 L136.5000,489.7827 L139.0833,489.8536 L141.6667,489.9302 L144.2500,490.0127 L146.8333,490.1016 L149.4167,490.1972 L152.0000,490.3001 L154.5833,490.4106 L157.1667,490.5292 L159.7500,490.6564 L162.3333,490.7925 L164.9167,490.9383 L167.5000,491.0941 L170.0833,491.2604 L172.6667,491.4379 L175.2500,491.6272 L177.8333,491.8286 L180.4167,492.0429 L183.0000,492.2707 L185.5833,492.5125 L188.1667,492.7690 L190.7500,493.0407 L193.3333,493.3284 L195.9167,493.6325 L198.5000,493.9538 L201.0833,494.2929 L203.6667,494.6503 L206.2500,495.0267 L208.8333,495.4227 L211.4167,495.8389 L214.0000,496.2758 L216.5833,496.7341 L219.1667,497.2142 L221.7500,497.7166 L224.3333,498.2419 L226.9167,498.7904 L229.5000,499.3627 L232.0833,499.9590 L234.6667,500.5797 L237.2500,501.2252 L239.8333,501.8956 L242.4167,502.5912 L245.0000,503.3121 L247.5833,504.0583 L250.1667,504.8299 L252.7500,505.6269 L255.3333,506.4490 L257.9167,507.2962 L260.5000,508.1681 L263.0833,509.0644 L265.6667,509.9848 L268.2500,510.9285 L270.8333,511.8952 L273.4167,512.8840 L276.0000,513.8943 L278.5833,514.9252 L281.1667,515.9757 L283.7500,517.0448 L286.3333,518.1314 L288.9167,519.2343 L291.5000,520.3521 L294.0833,521.4835 L296.6667,522.6269 L299.2500,523.7809 L301.8333,524.9438 L304.4167,526.1138 L307.0000,527.2892 L309.5833,528.4681 L312.1667,529.6486 L314.7500,530.8286 L317.3333,532.0061 L319.9167,533.1791 L322.5000,534.3452 L325.0833,535.5024 L327.6667,536.6484 L330.2500,537.7810 L332.8333,538.8978 L335.4167,539.9967 L338.0000,541.0752 L340.5833,542.1311 L343.1667,543.1622 L345.7500,544.1661 L348.3333,545.1406 L350.9167,546.0836 L353.5000,546.9929 L356.0833,547.8663 L358.6667,548.7019 L361.2500,549.4977 L363.8333,550.2517 L366.4167,550.9621 L369.0000,551.6273 L371.5833,552.2455 L374.1667,552.8153 L376.7500,553.3353 L379.3333,553.8041 L381.9167,554.2206 L384.5000,554.5838 L387.0833,554.8926 L389.6667,555.1464 L392.2500,555.3445 L394.8333,555.4863 L397.4167,555.5716 L400.0000,555.6000 L402.5833,555.5716 L405.1667,555.4863 L407.7500,555.3445 L410.3333,555.1464 L412.9167,554.8926 L415.5000,554.5838 L418.0833,554.2206 L420.6667,553.8041 L423.2500,553.3353 L425.8333,552.8153 L428.4167,552.2455 L431.0000,551.6273 L433.5833,550.9621 L436.1667,550.2517 L438.7500,549.4977 L441.3333,548.7019 L443.9167,547.8663 L446.5000,546.9929 L449.0833,546.0836 L451.6667,545.1406 L454.2500,544.1661 L456.8333,543.1622 L459.4167,542.1311 L462.0000,541.0752 L464.5833,539.9967 L467.1667,538.8978 L469.7500,537.7810 L472.3333,536.6484 L474.9167,535.5024 L477.5000,534.3452 L480.0833,533.1791 L482.6667,532.0061 L485.2500,530.8286 L487.8333,529.6486 L490.4167,528.4681 L493.0000,527.2892 L495.5833,526.1138 L498.1667,524.9438 L500.7500,523.7809 L503.3333,522.6269 L505.9167,521.4835 L508.5000,520.3521 L511.0833,519.2343 L513.6667,518.1314 L516.2500,517.0448 L518.8333,515.9757 L521.4167,514.9252 L524.0000,513.8943 L526.5833,512.8840 L529.1667,511.8952 L531.7500,510.9285 L534.3333,509.9848 L536.9167,509.0644 L539.5000,508.1681 L542.0833,507.2962 L544.6667,506.4490 L547.2500,505.6269 L549.8333,504.8299 L552.4167,504.0583 L555.0000,503.3121 L557.5833,502.5912 L560.1667,501.8956 L562.7500,501.2252 L565.3333,500.5797 L567.9167,499.9590 L570.5000,499.3627 L573.0833,498.7904 L575.6667,498.2419 L578.2500,497.7166 L580.8333,497.2142 L583.4167,496.7341 L586.0000,496.2758 L588.5833,495.8389 L591.1667,495.4227 L593.7500,495.0267 L596.3333,494.6503 L598.9167,494.2929 L601.5000,493.9538 L604.0833,493.6325 L606.6667,493.3284 L609.2500,493.0407 L611.8333,492.7690 L614.4167,492.5125 L617.0000,492.2707 L619.5833,492.0429 L622.1667,491.8286 L624.7500,491.6272 L627.3333,491.4379 L629.9167,491.2604 L632.5000,491.0941 L635.0833,490.9383 L637.6667,490.7925 L640.2500,490.6564 L642.8333,490.5292 L645.4167,490.4106 L648.0000,490.3001 L650.5833,490.1972 L653.1667,490.1016 L655.7500,490.0127 L658.3333,489.9302 L660.9167,489.8536 L663.5000,489.7827 L666.0833,489.7171 L668.6667,489.6564 L671.2500,489.6004 L673.8333,489.5486 L676.4167,489.5009 L679.0000,489.4570 L681.5833,489.4165 L684.1667,489.3793 L686.7500,489.3452 L689.3333,489.3138 L691.9167,489.2851 L694.5000,489.2587 L697.0833,489.2346 L699.6667,489.2126 L702.2500,489.1924 L704.8333,489.1741 L707.4167,489.1573 L710.0000,489.1420" fill="none" data-level="-0.74"/>
<path d="M90.0000,544.5710 L92.5833,544.5786 L95.1667,544.5870 L97.7500,544.5962 L100.3333,544.6063 L102.9167,544.6173 L105.5000,544.6294 L108.0833,544.6425 L110.6667,544.6569 L113.2500,544.6726 L115.8333,544.6897 L118.4167,544.7083 L121.0000,544.7285 L123.5833,544.7505 L126.1667,544.7743 L128.7500,544.8002 L131.3333,544.8282 L133.9167,544.8586 L136.5000,544.8914 L139.0833,544.9268 L141.6667,544.9651 L144.2500,545.0063 L146.8333,545.0508 L149.4167,545.0986 L152.0000,545.1501 L154.5833,545.2053 L157.1667,545.2646 L159.7500,545.3282 L162.3333,545.3963 L164.9167,545.4691 L167.5000,545.5470 L170.0833,545.6302 L172.6667,545.7190 L175.2500,545.8136 L177.8333,545.9143 L180.4167,546.0215 L183.0000,546.1354 L185.5833,546.2563 L188.1667,546.3845 L190.7500,546.5204 L193.3333,546.6642 L195.9167,546.8163 L198.5000,546.9769 L201.0833,547.1464 L203.6667,547.3252 L206.2500,547.5134 L208.8333,547.7114 L211.4167,547.9195 L214.0000,548.1379 L216.5833,548.3670 L219.1667,548.6071 L221.7500,548.8583 L224.3333,549.1209 L226.9167,549.3952 L229.5000,549.6813 L232.0833,549.9795 L234.6667,550.2899 L237.2500,550.6126 L239.8333,550.9478 L242.4167,551.2956 L245.0000,551.6560 L247.5833,552.0292 L250.1667,552.4150 L252.7500,552.8134 L255.3333,553.2245 L257.9167,553.6481 L260.5000,554.0841 L263.0833,554.5322 L265.6667,554.9924 L268.2500,555.4643 L270.8333,555.9476 L273.4167,556.4420 L276.0000,556.9472 L278.5833,557.4626 L281.1667,557.9879 L283.7500,558.5224 L286.3333,559.0657 L288.9167,559.6171 L291.5000,560.1760 L294.0833,560.7417 L296.6667,561.3135 L299.2500,561.8905 L301.8333,562.4719 L304.4167,563.0569 L307.0000,563.6446 L309.5833,564.2341 L312.1667,564.8243 L314.7500,565.4143 L317.3333,566.0031 L319.9167,566.5895 L322.5000,567.1726 L325.0833,567.7512 L327.6667,568.3242 L330.2500,568.8905 L332.8333,569.4489 L335.4167,569.9983 L338.0000,570.5376 L340.5833,571.0656 L343.1667,571.5811 L345.7500,572.0830 L348.3333,572.5703 L350.9167,573.0418 L353.5000,573.4964 L356.0833,573.9332 L358.6667,574.3510 L361.2500,574.7488 L363.8333,575.1258 L366.4167,575.4810 L369.0000,575.8136 L371.5833,576.1228 L374.1667,576.4077 L376.7500,576.6677 L379.3333,576.9021 L381.9167,577.1103 L384.5000,577.2919 L387.0833,577.4463 L389.6667,577.5732 L392.2500,577.6722 L394.8333,577.7432 L397.4167,577.7858 L400.0000,577.8000 L402.5833,577.7858 L405.1667,577.7432 L407.7500,577.6722 L410.3333,577.5732 L412.9167,577.4463 L415.5000,577.2919 L418.0833,577.1103 L420.6667,576.9021 L423.2500,576.6677 L425.8333,576.4077 L428.4167,576.1228 L431.0000,575.8136 L433.5833,575.4810 L436.1667,575.1258 L438.7500,574.7488 L441.3333,574.3510 L443.9167,573.9332 L446.5000,573.4964 L449.0833,573.0418 L451.6667,572.5703 L454.2500,572.0830 L456.8333,571.5811 L459.4167,571.0656 L462.0000,570.5376 L464.5833,569.9983 L467.1667,569.4489 L469.7500,568.8905 L472.3333,568.3242 L474.9167,567.7512 L477.5000,567.1726 L480.0833,566.5895 L482.6667,566.0031 L485.2500,565.4143 L487.8333,564.8243 L490.4167,564.2341 L493.0000,563.6446 L495.5833,563.0569 L498.1667,562.4719 L500.7500,561.8905 L503.3333,561.3135 L505.9167,560.7417 L508.5000,560.1760 L511.0833,559.6171 L513.6667,559.0657 L516.2500,558.5224 L518.8333,557.9879 L521.4167,557.4626 L524.0000,556.9472 L526.5833,556.4420 L529.1667,555.9476 L531.7500,555.4643 L534.3333,554.9924 L536.9167,554.5322 L539.5000,554.0841 L542.0833,553.6481 L544.6667,553.2245 L547.2500,552.8134 L549.8333,552.4150 L552.4167,552.0292 L555.0000,551.6560 L557.5833,551.2956 L560.1667,550.9478 L562.7500,550.6126 L565.3333,550.2899 L567.9167,549.9795 L570.5000,549.6813 L573.0833,549.3952 L575.6667,549.1209 L578.2500,548.8583 L580.8333,548.6071 L583.4167,548.3670 L586.0000,548.1379 L588.5833,547.9195 L591.1667,547.7114 L593.7500,547.5134 L596.3333,547.3252 L598.9167,547.1464 L601.5000,546.9769 L604.0833,546.8163 L606.6667,546.6642 L609.2500,546.5204 L611.8333,546.3845 L614.4167,546.2563 L617.0000,546.1354 L619.5833,546.0215 L622.1667,545.9143 L624.7500,545.8136 L627.3333,545.7190 L629.9167,545.6302 L632.5000,545.5470 L635.0833,545.4691 L637.6667,545.3963 L640.2500,545.3282 L642.8333,545.2646 L645.4167,545.2053 L648.0000,545.1501 L650.5833,545.0986 L653.1667,545.0508 L655.7500,545.0063 L658.3333,544.9651 L660.9167,544.9268 L663.5000,544.8914 L666.0833,544.8586 L668.6667,544.8282 L671.2500,544.8002 L673.8333,544.7743 L676.4167,544.7505 L679.0000,544.7285 L681.5833,544.7083 L684.1667,544.6897 L686.7500,544.6726 L689.3333,544.6569 L691.9167,544.6425 L694.5000,544.6294 L697.0833,544.6173 L699.6667,544.6063 L702.2500,544.5962 L704.8333,544.5870 L707.4167,544.5786 L710.0000,544.5710" fill="none" data-level="-0.37"/>
<path d="M90.0000,600.0000 L92.5833,600.0000 L95.1667,600.0000 L97.7500,600.0000 L100.3333,600.0000 L102.9167,600.0000 L105.5000,600.0000 L108.0833,600.0000 L110.6667,600.0000 L113.2500,600.0000 L115.8333,600.0000 L118.4167,600.0000 L121.0000,600.0000 L123.5833,600.0000 L126.1667,600.0000 L128.7500,600.0000 L131.3333,600.0000 L133.9167,600.0000 L136.5000,600.0000 L139.0833,600.0000 L141.6667,600.0000 L144.2500,600.0000 L146.8333,600.0000 L149.4167,600.0000 L152.0000,600.0000 L154.5833,600.0000 L157.1667,600.0000 L159.7500,600.0000 L162.3333,600.0000 L164.9167,600.0000 L167.5000,600.0000 L170.0833,600.0000 L172.6667,600.0000 L175.2500,600.0000 L177.8333,600.0000 L180.4167,600.0000 L183.0000,600.0000 L185.5833,600.0000 L188.1667,600.0000 L190.7500,600.0000 L193.3333,600.0000 L195.9167,600.0000 L198.5000,600.0000 L201.0833,600.0000 L203.6667,600.0000 L206.2500,600.0000 L208.8333,600.0000 L211.4167,600.0000 L214.0000,600.0000 L216.5833,600.0000 L219.1667,600.0000 L221.7500,600.0000 L224.3333,600.0000 L226.9167,600.0000 L229.5000,600.0000 L232.0833,600.0000 L234.6667,600.0000 L237.2500,600.0000 L239.8333,600.0000 L242.4167,600.0000 L245.0000,600.0000 L247.5833,600.0000 L250.1667,600.0000 L252.7500,600.0000 L255.3333,600.0000 L257.9167,600.0000 L260.5000,600.0000 L263.0833,600.0000 L265.6667,600.0000 L268.2500,600.0000 L270.8333,600.0000 L273.4167,600.0000 L276.0000,600.0000 L278.5833,600.0000 L281.1667,600.0000 L283.7500,600.0000 L286.3333,600.0000 L288.9167,600.0000 L291.5000,600.0000 L294.0833,600.0000 L296.6667,600.0000 L299.2500,600.0000 L301.8333,600.0000 L304.4167,600.0000 L307.0000,600.0000 L309.5833,600.0000 L312.1667,600.0000 L314.7500,600.0000 L317.3333,600.0000 L319.9167,600.0000 L322.5000,600.0000 L325.0833,600.0000 L327.6667,600.0000 L330.2500,600.0000 L332.8333,600.0000 L335.4167,600.0000 L338.0000,600.0000 L340.5833,600.0000 L343.1667,600.0000 L345.7500,600.0000 L348.3333,600.0000 L350.9167,600.0000 L353.5000,600.0000 L356.0833,600.0000 L358.6667,600.0000 L361.2500,600.0000 L363.8333,600.0000 L366.4167,600.0000 L369.0000,600.0000 L371.5833,600.0000 L374.1667,600.0000 L376.7500,600.0000 L379.3333,600.0000 L381.9167,600.0000 L384.5000,600.0000 L387.0833,600.0000 L389.6667,600.0000 L392.2500,600.0000 L394.8333,600.0000 L397.4167,600.0000 L400.0000,600.0000 L402.5833,600.0000 L405.1667,600.0000 L407.7500,600.0000 L410.3333,600.0000 L412.9167,600.0000 L415.5000,600.0000 L418.0833,600.0000 L420.6667,600.0000 L423.2500,600.0000 L425.8333,600.0000 L428.4167,600.0000 L431.0000,600.0000 L433.5833,600.0000 L436.1667,600.0000 L438.7500,600.0000 L441.3333,600.0000 L443.9167,600.0000 L446.5000,600.0000 L449.0833,600.0000 L451.6667,600.0000 L454.2500,600.0000 L456.8333,600.0000 L459.4167,600.0000 L462.0000,600.0000 L464.5833,600.0000 L467.1667,600.0000 L469.7500,600.0000 L472.3333,600.0000 L474.9167,600.0000 L477.5000,600.0000 L480.0833,600.0000 L482.6667,600.0000 L485.2500,600.0000 L487.8333,600.0000 L490.4167,600.0000 L493.0000,600.0000 L495.5833,600.0000 L498.1667,600.0000 L500.7500,600.0000 L503.3333,600.0000 L505.9167,600.0000 L508.5000,600.0000 L511.0833,600.0000 L513.6667,600.0000 L516.2500,600.0000 L518.8333,600.0000 L521.4167,600.0000 L524.0000,600.0000 L526.5833,600.0000 L529.1667,600.0000 L531.7500,600.0000 L534.3333,600.0000 L536.9167,600.0000 L539.5000,600.0000 L542.0833,600.0000 L544.6667,600.0000 L547.2500,600.0000 L549.8333,600.0000 L552.4167,600.0000 L555.0000,600.0000 L557.5833,600.0000 L560.1667,600.0000 L562.7500,600.0000 L565.3333,600.0000 L567.9167,600.0000 L570.5000,600.0000 L573.0833,600.0000 L575.6667,600.0000 L578.2500,600.0000 L580.8333,600.0000 L583.4167,600.0000 L586.0000,600.0000 L588.5833,600.0000 L591.1667,600.0000 L593.7500,600.0000 L596.3333,600.0000 L598.9167,600.0000 L601.5000,600.0000 L604.0833,600.0000 L606.6667,600.0000 L609.2500,600.0000 L611.8333,600.0000 L614.4167,600.0000 L617.0000,600.0000 L619.5833,600.0000 L622.1667,600.0000 L624.7500,600.0000 L627.3333,600.0000 L629.9167,600.0000 L632.5000,600.0000 L635.0833,600.0000 L637.6667,600.0000 L640.2500,600.0000 L642.8333,600.0000 L645.4167,600.0000 L648.0000,600.0000 L650.5833,600.0000 L653.1667,600.0000 L655.7500,600.0000 L658.3333,600.0000 L660.9167,600.0000 L663.5000,600.0000 L666.0833,600.0000 L668.6667,600.0000 L671.2500,600.0000 L673.8333,600.0000 L676.4167,600.0000 L679.0000,600.0000 L681.5833,600.0000 L684.1667,600.0000 L686.7500,600.0000 L689.3333,600.0000 L691.9167,600.0000 L694.5000,600.0000 L697.0833,600.0000 L699.6667,600.0000 L702.2500,600.0000 L704.8333,600.0000 L707.4167,600.0000 L710.0000,600.0000" fill="none" data-level="0.0"/>
<path d="M90.0000,655.4290 L92.5833,655.4214 L95.1667,655.4130 L97.7500,655.4038 L100.3333,655.3937 L102.9167,655.3827 L105.5000,655.3706 L108.0833,655.3575 L110.6667,655.3431 L113.2500,655.3274 L115.8333,655.3103 L118.4167,655.2917 L121.0000,655.2715 L123.5833,655.2495 L126.1667,655.2257 L128.7500,655.1998 L131.3333,655.1718 L133.9167,655.1414 L136.5000,655.1086 L139.0833,655.0732 L141.6667,655.0349 L144.2500,654.9937 L146.8333,654.9492 L149.4167,654.9014 L152.0000,654.8499 L154.5833,654.7947 L157.1667,654.7354 L159.7500,654.6718 L162.3333,654.6037 L164.9167,654.5309 L167.5000,654.4530 L170.0833,654.3698 L172.6667,654.2810 L175.2500,654.1864 L177.8333,654.0857 L180.4167,653.9785 L183.0000,653.8646 L185.5833,653.7437 L188.1667,653.6155 L190.7500,653.4796 L193.3333,653.3358 L195.9167,653.1837 L198.5000,653.0231 L201.0833,652.8536 L203.6667,652.6748 L206.2500,652.4866 L208.8333,652.2886 L211.4167,652.0805 L214.0000,651.8621 L216.5833,651.6330 L219.1667,651.3929 L221.7500,651.1417 L224.3333,650.8791 L226.9167,650.6048 L229.5000,650.3187 L232.0833,650.0205 L234.6667,649.7101 L237.2500,649.3874 L239.8333,649.0522 L242.4167,648.7044 L245.0000,648.3440 L247.5833,647.9708 L250.1667,647.5850 L252.7500,647.1866 L255.3333,646.7755 L257.9167,646.3519 L260.5000,645.9159 L263.0833,645.4678 L265.6667,645.0076 L268.2500,644.5357 L270.8333,644.0524 L273.4167,643.5580 L276.0000,643.0528 L278.5833,642.5374 L281.1667,642.0121 L283.7500,641.4776 L286.3333,640.9343 L288.9167,640.3829 L291.5000,639.8240 L294.0833,639.2583 L296.6667,638.6865 L299.2500,638.1095 L301.8333,637.5281 L304.4167,636.9431 L307.0000,636.3554 L309.5833,635.7659 L312.1667,635.1757 L314.7500,634.5857 L317.3333,633.9969 L319.9167,633.4105 L322.5000,632.8274 L325.0833,632.2488 L327.6667,631.6758 L330.2500,631.1095 L332.8333,630.5511 L335.4167,630.0017 L338.0000,629.4624 L340.5833,628.9344 L343.1667,628.4189 L345.7500,627.9170 L348.3333,627.4297 L350.9167,626.9582 L353.5000,626.5036 L356.0833,626.0668 L358.6667,625.6490 L361.2500,625.2512 L363.8333,624.8742 L366.4167,624.5190 L369.0000,624.1864 L371.5833,623.8772 L374.1667,623.5923 L376.7500,623.3323 L379.3333,623.0979 L381.9167,622.8897 L384.5000,622.7081 L387.0833,622.5537 L389.6667,622.4268 L392.2500,622.3278 L394.8333,622.2568 L397.4167,622.2142 L400.0000,622.2000 L402.5833,622.2142 L405.1667,622.2568 L407.7500,622.3278 L410.3333,622.4268 L412.9167,622.5537 L415.5000,622.7081 L418.0833,622.8897 L420.6667,623.0979 L423.2500,623.3323 L425.8333,623.5923 L428.4167,623.8772 L431.0000,624.1864 L433.5833,624.5190 L436.1667,624.8742 L438.7500,625.2512 L441.3333,625.6490 L443.9167,626.0668 L446.5000,626.5036 L449.0833,626.9582 L451.6667,627.4297 L454.2500,627.9170 L456.8333,628.4189 L459.4167,628.9344 L462.0000,629.4624 L464.5833,630.0017 L467.1667,630.5511 L469.7500,631.1095 L472.3333,631.6758 L474.9167,632.2488 L477.5000,632.8274 L480.0833,633.4105 L482.6667,633.9969 L485.2500,634.5857 L487.8333,635.1757 L490.4167,635.7659 L493.0000,636.3554 L495.5833,636.9431 L498.1667,637.5281 L500.7500,638.1095 L503.3333,638.6865 L505.9167,639.2583 L508.5000,639.8240 L511.0833,640.3829 L513.6667,640.9343 L516.2500,641.4776 L518.8333,642.0121 L521.4167,642.5374 L524.0000,643.0528 L526.5833,643.5580 L529.1667,644.0524 L531.7500,644.5357 L534.3333,645.0076 L536.9167,645.4678 L539.5000,645.9159 L542.0833,646.3519 L544.6667,646.7755 L547.2500,647.1866 L549.8333,647.5850 L552.4167,647.9708 L555.0000,648.3440 L557.5833,648.7044 L560.1667,649.0522 L562.7500,649.3874 L565.3333,649.7101 L567.9167,650.0205 L570.5000,650.3187 L573.0833,650.6048 L575.6667,650.8791 L578.2500,651.1417 L580.8333,651.3929 L583.4167,651.6330 L586.0000,651.8621 L588.5833,652.0805 L591.1667,652.2886 L593.7500,652.4866 L596.3333,652.6748 L598.9167,652.8536 L601.5000,653.0231 L604.0833,653.1837 L606.6667,653.3358 L609.2500,653.4796 L611.8333,653.6155 L614.4167,653.7437 L617.0000,653.8646 L619.5833,653.9785 L622.1667,654.0857 L624.7500,654.1864 L627.3333,654.2810 L629.9167,654.3698 L632.5000,654.4530 L635.0833,654.5309 L637.6667,654.6037 L640.2500,654.6718 L642.8333,654.7354 L645.4167,654.7947 L648.0000,654.8499 L650.5833,654.9014 L653.1667,654.9492 L655.7500,654.9937 L658.3333,655.0349 L660.9167,655.0732 L663.5000,655.1086 L666.0833,655.1414 L668.6667,655.1718 L671.2500,655.1998 L673.8333,655.2257 L676.4167,655.2495 L679.0000,655.2715 L681.5833,655.2917 L684.1667,655.3103 L686.7500,655.3274 L689.3333,655.3431 L691.9167,655.3575 L694.5000,655.3706 L697.0833,655.3827 L699.6667,655.3937 L702.2500,655.4038 L704.8333,655.4130 L707.4167,655.4214 L710.0000,655.4290" fill="none" data-level="0.37"/>
<path d="M90.0000,710.8580 L92.5833,710.8427 L95.1667,710.8259 L97.7500,710.8076 L100.3333,710.7874 L102.9167,710.7654 L105.5000,710.7413 L108.0833,710.7149 L110.6667,710.6862 L113.2500,710.6548 L115.8333,710.6207 L118.4167,710.5835 L121.0000,710.5430 L123.5833,710.4991 L126.1667,710.4514 L128.7500,710.3996 L131.3333,710.3436 L133.9167,710.2829 L136.5000,710.2173 L139.0833,710.1464 L141.6667,710.0698 L144.2500,709.9873 L146.8333,709.8984 L149.4167,709.8028 L152.0000,709.6999 L154.5833,709.5894 L157.1667,709.4708 L159.7500,709.3436 L162.3333,709.2075 L164.9167,709.0617 L167.5000,708.9059 L170.0833,708.7396 L172.6667,708.5621 L175.2500,708.3728 L177.8333,708.1714 L180.4167,707.9571 L183.0000,707.7293 L185.5833,707.4875 L188.1667,707.2310 L190.7500,706.9593 L193.3333,706.6716 L195.9167,706.3675 L198.5000,706.0462 L201.0833,705.7071 L203.6667,705.3497 L206.2500,704.9733 L208.8333,704.5773 L211.4167,704.1611 L214.0000,703.7242 L216.5833,703.2659 L219.1667,702.7858 L221.7500,702.2834 L224.3333,701.7581 L226.9167,701.2096 L229.5000,700.6373 L232.0833,700.0410 L234.6667,699.4203 L237.2500,698.7748 L239.8333,698.1044 L242.4167,697.4088 L245.0000,696.6879 L247.5833,695.9417 L250.1667,695.1701 L252.7500,694.3731 L255.3333,693.5510 L257.9167,692.7038 L260.5000,691.8319 L263.0833,690.9356 L265.6667,690.0152 L268.2500,689.0715 L270.8333,688.1048 L273.4167,687.1160 L276.0000,686.1057 L278.5833,685.0748 L281.1667,684.0243 L283.7500,682.9552 L286.3333,681.8686 L288.9167,680.7657 L291.5000,679.6479 L294.0833,678.5165 L296.6667,677.3731 L299.2500,676.2191 L301.8333,675.0562 L304.4167,673.8862 L307.0000,672.7108 L309.5833,671.5319 L312.1667,670.3514 L314.7500,669.1714 L317.3333,667.9939 L319.9167,666.8209 L322.5000,665.6548 L325.0833,664.4976 L327.6667,663.3516 L330.2500,662.2190 L332.8333,661.1022 L335.4167,660.0033 L338.0000,658.9248 L340.5833,657.8689 L343.1667,656.8378 L345.7500,655.8339 L348.3333,654.8594 L350.9167,653.9164 L353.5000,653.0071 L356.0833,652.1337 L358.6667,651.2981 L361.2500,650.5023 L363.8333,649.7483 L366.4167,649.0379 L369.0000,648.3727 L371.5833,647.7545 L374.1667,647.1847 L376.7500,646.6647 L379.3333,646.1959 L381.9167,645.7794 L384.5000,645.4162 L387.0833,645.1074 L389.6667,644.8536 L392.2500,644.6555 L394.8333,644.5137 L397.4167,644.4284 L400.0000,644.4000 L402.5833,644.4284 L405.1667,644.5137 L407.7500,644.6555 L410.3333,644.8536 L412.9167,645.1074 L415.5000,645.4162 L418.0833,645.7794 L420.6667,646.1959 L423.2500,646.6647 L425.8333,647.1847 L428.4167,647.7545 L431.0000,648.3727 L433.5833,649.0379 L436.1667,649.7483 L438.7500,650.5023 L441.3333,651.2981 L443.9167,652.1337 L446.5000,653.0071 L449.0833,653.9164 L451.6667,654.8594 L454.2500,655.8339 L456.8333,656.8378 L459.4167,657.8689 L462.0000,658.9248 L464.5833,660.0033 L467.1667,661.1022 L469.7500,662.2190 L472.3333,663.3516 L474.9167,664.4976 L477.5000,665.6548 L480.0833,666.8209 L482.6667,667.9939 L485.2500,669.1714 L487.8333,670.3514 L490.4167,671.5319 L493.0000,672.7108 L495.5833,673.8862 L498.1667,675.0562 L500.7500,676.2191 L503.3333,677.3731 L505.9167,678.5165 L508.5000,679.6479 L511.0833,680.7657 L513.6667,681.8686 L516.2500,682.9552 L518.8333,684.0243 L521.4167,685.0748 L524.0000,686.1057 L526.5833,687.1160 L529.1667,688.1048 L531.7500,689.0715 L534.3333,690.0152 L536.9167,690.9356 L539.5000,691.8319 L542.0833,692.7038 L544.6667,693.5510 L547.2500,694.3731 L549.8333,695.1701 L552.4167,695.9417 L555.0000,696.6879 L557.5833,697.4088 L560.1667,698.1044 L562.7500,698.7748 L565.3333,699.4203 L567.9167,700.0410 L570.5000,700.6373 L573.0833,701.2096 L575.6667,701.7581 L578.2500,702.2834 L580.8333,702.7858 L583.4167,703.2659 L586.0000,703.7242 L588.5833,704.1611 L591.1667,704.5773 L593.7500,704.9733 L596.3333,705.3497 L598.9167,705.7071 L601.5000,706.0462 L604.0833,706.3675 L606.6667,706.6716 L609.2500,706.9593 L611.8333,707.2310 L614.4167,707.4875 L617.0000,707.7293 L619.5833,707.9571 L622.1667,708.1714 L624.7500,708.3728 L627.3333,708.5621 L629.9167,708.7396 L632.5000,708.9059 L635.0833,709.0617 L637.6667,709.2075 L640.2500,709.3436 L642.8333,709.4708 L645.4167,709.5894 L648.0000,709.6999 L650.5833,709.8028 L653.1667,709.8984 L655.7500,709.9873 L658.3333,710.0698 L660.9167,710.1464 L663.5000,710.2173 L666.0833,710.2829 L668.6667,710.3436 L671.2500,710.3996 L673.8333,710.4514 L676.4167,710.4991 L679.0000,710.5430 L681.5833,710.5835 L684.1667,710.6207 L686.7500,710.6548 L689.3333,710.6862 L691.9167,710.7149 L694.5000,710.7413 L697.0833,710.7654 L699.6667,710.7874 L702.2500,710.8076 L704.8333,710.8259 L707.4167,710.8427 L710.0000,710.8580" fill="none" data-level="0.74"/>
</g>
<g id="speed-arrows-0" stroke="#286b8a" stroke-width="6" stroke-linecap="round">
<path d="M182.8333,600.0 H216.1667" fill="none" data-center="-195.0" data-length="44.333366"/>
<polygon points="227.1667,600.0000 212.1667,606.3000 212.1667,593.7000" fill="#286b8a"/>
<path d="M347.5000,600.0 H441.5000" fill="none" data-center="0.0" data-length="105.000000"/>
<polygon points="452.5000,600.0000 437.5000,606.3000 437.5000,593.7000" fill="#286b8a"/>
<path d="M572.8333,600.0 H606.1667" fill="none" data-center="195.0" data-length="44.333366"/>
<polygon points="617.1667,600.0000 602.1667,606.3000 602.1667,593.7000" fill="#286b8a"/>
</g>
<g id="streamline-arrows-0">
<polygon points="493.0000,527.2892 484.1711,536.8523 479.9904,527.6801" fill="#286b8a"/>
<polygon points="493.0000,563.6446 482.4199,571.2250 480.1801,561.3970" fill="#286b8a"/>
<polygon points="493.0000,636.3554 480.1801,638.6030 482.4199,628.7750" fill="#286b8a"/>
<polygon points="493.0000,672.7108 479.9904,672.3199 484.1711,663.1477" fill="#286b8a"/>
</g>
<g id="channel-1">
<path d="M890.0000,450.1919 L892.5833,450.2126 L895.1667,450.2352 L897.7500,450.2600 L900.3333,450.2873 L902.9167,450.3170 L905.5000,450.3496 L908.0833,450.3852 L910.6667,450.4241 L913.2500,450.4664 L915.8333,450.5126 L918.4167,450.5629 L921.0000,450.6175 L923.5833,450.6769 L926.1667,450.7414 L928.7500,450.8113 L931.3333,450.8871 L933.9167,450.9691 L936.5000,451.0578 L939.0833,451.1536 L941.6667,451.2570 L944.2500,451.3685 L946.8333,451.4886 L949.4167,451.6179 L952.0000,451.7569 L954.5833,451.9062 L957.1667,452.0665 L959.7500,452.2383 L962.3333,452.4224 L964.9167,452.6193 L967.5000,452.8298 L970.0833,453.0546 L972.6667,453.2945 L975.2500,453.5502 L977.8333,453.8225 L980.4167,454.1121 L983.0000,454.4199 L985.5833,454.7467 L988.1667,455.0932 L990.7500,455.4605 L993.3333,455.8492 L995.9167,456.2602 L998.5000,456.6944 L1001.0833,457.1525 L1003.6667,457.6356 L1006.2500,458.1442 L1008.8333,458.6794 L1011.4167,459.2418 L1014.0000,459.8322 L1016.5833,460.4515 L1019.1667,461.1002 L1021.7500,461.7792 L1024.3333,462.4890 L1026.9167,463.2303 L1029.5000,464.0036 L1032.0833,464.8094 L1034.6667,465.6483 L1037.2500,466.5206 L1039.8333,467.4265 L1042.4167,468.3665 L1045.0000,469.3407 L1047.5833,470.3491 L1050.1667,471.3918 L1052.7500,472.4688 L1055.3333,473.5798 L1057.9167,474.7246 L1060.5000,475.9029 L1063.0833,477.1141 L1065.6667,478.3578 L1068.2500,479.6332 L1070.8333,480.9394 L1073.4167,482.2757 L1076.0000,483.6410 L1078.5833,485.0341 L1081.1667,486.4537 L1083.7500,487.8984 L1086.3333,489.3668 L1088.9167,490.8571 L1091.5000,492.3677 L1094.0833,493.8966 L1096.6667,495.4418 L1099.2500,497.0012 L1101.8333,498.5727 L1104.4167,500.1538 L1107.0000,501.7422 L1109.5833,503.3353 L1112.1667,504.9305 L1114.7500,506.5251 L1117.3333,508.1164 L1119.9167,509.7014 L1122.5000,511.2773 L1125.0833,512.8411 L1127.6667,514.3898 L1130.2500,515.9202 L1132.8333,517.4295 L1135.4167,518.9144 L1138.0000,520.3719 L1140.5833,521.7988 L1143.1667,523.1921 L1145.7500,524.5488 L1148.3333,525.8657 L1150.9167,527.1400 L1153.5000,528.3688 L1156.0833,529.5491 L1158.6667,530.6783 L1161.2500,531.7536 L1163.8333,532.7725 L1166.4167,533.7326 L1169.0000,534.6314 L1171.5833,535.4669 L1174.1667,536.2369 L1176.7500,536.9396 L1179.3333,537.5732 L1181.9167,538.1360 L1184.5000,538.6267 L1187.0833,539.0441 L1189.6667,539.3871 L1192.2500,539.6547 L1194.8333,539.8464 L1197.4167,539.9616 L1200.0000,540.0000 L1202.5833,539.9616 L1205.1667,539.8464 L1207.7500,539.6547 L1210.3333,539.3871 L1212.9167,539.0441 L1215.5000,538.6267 L1218.0833,538.1360 L1220.6667,537.5732 L1223.2500,536.9396 L1225.8333,536.2369 L1228.4167,535.4669 L1231.0000,534.6314 L1233.5833,533.7326 L1236.1667,532.7725 L1238.7500,531.7536 L1241.3333,530.6783 L1243.9167,529.5491 L1246.5000,528.3688 L1249.0833,527.1400 L1251.6667,525.8657 L1254.2500,524.5488 L1256.8333,523.1921 L1259.4167,521.7988 L1262.0000,520.3719 L1264.5833,518.9144 L1267.1667,517.4295 L1269.7500,515.9202 L1272.3333,514.3898 L1274.9167,512.8411 L1277.5000,511.2773 L1280.0833,509.7014 L1282.6667,508.1164 L1285.2500,506.5251 L1287.8333,504.9305 L1290.4167,503.3353 L1293.0000,501.7422 L1295.5833,500.1538 L1298.1667,498.5727 L1300.7500,497.0012 L1303.3333,495.4418 L1305.9167,493.8966 L1308.5000,492.3677 L1311.0833,490.8571 L1313.6667,489.3668 L1316.2500,487.8984 L1318.8333,486.4537 L1321.4167,485.0341 L1324.0000,483.6410 L1326.5833,482.2757 L1329.1667,480.9394 L1331.7500,479.6332 L1334.3333,478.3578 L1336.9167,477.1141 L1339.5000,475.9029 L1342.0833,474.7246 L1344.6667,473.5798 L1347.2500,472.4688 L1349.8333,471.3918 L1352.4167,470.3491 L1355.0000,469.3407 L1357.5833,468.3665 L1360.1667,467.4265 L1362.7500,466.5206 L1365.3333,465.6483 L1367.9167,464.8094 L1370.5000,464.0036 L1373.0833,463.2303 L1375.6667,462.4890 L1378.2500,461.7792 L1380.8333,461.1002 L1383.4167,460.4515 L1386.0000,459.8322 L1388.5833,459.2418 L1391.1667,458.6794 L1393.7500,458.1442 L1396.3333,457.6356 L1398.9167,457.1525 L1401.5000,456.6944 L1404.0833,456.2602 L1406.6667,455.8492 L1409.2500,455.4605 L1411.8333,455.0932 L1414.4167,454.7467 L1417.0000,454.4199 L1419.5833,454.1121 L1422.1667,453.8225 L1424.7500,453.5502 L1427.3333,453.2945 L1429.9167,453.0546 L1432.5000,452.8298 L1435.0833,452.6193 L1437.6667,452.4224 L1440.2500,452.2383 L1442.8333,452.0665 L1445.4167,451.9062 L1448.0000,451.7569 L1450.5833,451.6179 L1453.1667,451.4886 L1455.7500,451.3685 L1458.3333,451.2570 L1460.9167,451.1536 L1463.5000,451.0578 L1466.0833,450.9691 L1468.6667,450.8871 L1471.2500,450.8113 L1473.8333,450.7414 L1476.4167,450.6769 L1479.0000,450.6175 L1481.5833,450.5629 L1484.1667,450.5126 L1486.7500,450.4664 L1489.3333,450.4241 L1491.9167,450.3852 L1494.5000,450.3496 L1497.0833,450.3170 L1499.6667,450.2873 L1502.2500,450.2600 L1504.8333,450.2352 L1507.4167,450.2126 L1510.0000,450.1919 L1510.0000,749.8081 L1507.4167,749.7874 L1504.8333,749.7648 L1502.2500,749.7400 L1499.6667,749.7127 L1497.0833,749.6830 L1494.5000,749.6504 L1491.9167,749.6148 L1489.3333,749.5759 L1486.7500,749.5336 L1484.1667,749.4874 L1481.5833,749.4371 L1479.0000,749.3825 L1476.4167,749.3231 L1473.8333,749.2586 L1471.2500,749.1887 L1468.6667,749.1129 L1466.0833,749.0309 L1463.5000,748.9422 L1460.9167,748.8464 L1458.3333,748.7430 L1455.7500,748.6315 L1453.1667,748.5114 L1450.5833,748.3821 L1448.0000,748.2431 L1445.4167,748.0938 L1442.8333,747.9335 L1440.2500,747.7617 L1437.6667,747.5776 L1435.0833,747.3807 L1432.5000,747.1702 L1429.9167,746.9454 L1427.3333,746.7055 L1424.7500,746.4498 L1422.1667,746.1775 L1419.5833,745.8879 L1417.0000,745.5801 L1414.4167,745.2533 L1411.8333,744.9068 L1409.2500,744.5395 L1406.6667,744.1508 L1404.0833,743.7398 L1401.5000,743.3056 L1398.9167,742.8475 L1396.3333,742.3644 L1393.7500,741.8558 L1391.1667,741.3206 L1388.5833,740.7582 L1386.0000,740.1678 L1383.4167,739.5485 L1380.8333,738.8998 L1378.2500,738.2208 L1375.6667,737.5110 L1373.0833,736.7697 L1370.5000,735.9964 L1367.9167,735.1906 L1365.3333,734.3517 L1362.7500,733.4794 L1360.1667,732.5735 L1357.5833,731.6335 L1355.0000,730.6593 L1352.4167,729.6509 L1349.8333,728.6082 L1347.2500,727.5312 L1344.6667,726.4202 L1342.0833,725.2754 L1339.5000,724.0971 L1336.9167,722.8859 L1334.3333,721.6422 L1331.7500,720.3668 L1329.1667,719.0606 L1326.5833,717.7243 L1324.0000,716.3590 L1321.4167,714.9659 L1318.8333,713.5463 L1316.2500,712.1016 L1313.6667,710.6332 L1311.0833,709.1429 L1308.5000,707.6323 L1305.9167,706.1034 L1303.3333,704.5582 L1300.7500,702.9988 L1298.1667,701.4273 L1295.5833,699.8462 L1293.0000,698.2578 L1290.4167,696.6647 L1287.8333,695.0695 L1285.2500,693.4749 L1282.6667,691.8836 L1280.0833,690.2986 L1277.5000,688.7227 L1274.9167,687.1589 L1272.3333,685.6102 L1269.7500,684.0798 L1267.1667,682.5705 L1264.5833,681.0856 L1262.0000,679.6281 L1259.4167,678.2012 L1256.8333,676.8079 L1254.2500,675.4512 L1251.6667,674.1343 L1249.0833,672.8600 L1246.5000,671.6312 L1243.9167,670.4509 L1241.3333,669.3217 L1238.7500,668.2464 L1236.1667,667.2275 L1233.5833,666.2674 L1231.0000,665.3686 L1228.4167,664.5331 L1225.8333,663.7631 L1223.2500,663.0604 L1220.6667,662.4268 L1218.0833,661.8640 L1215.5000,661.3733 L1212.9167,660.9559 L1210.3333,660.6129 L1207.7500,660.3453 L1205.1667,660.1536 L1202.5833,660.0384 L1200.0000,660.0000 L1197.4167,660.0384 L1194.8333,660.1536 L1192.2500,660.3453 L1189.6667,660.6129 L1187.0833,660.9559 L1184.5000,661.3733 L1181.9167,661.8640 L1179.3333,662.4268 L1176.7500,663.0604 L1174.1667,663.7631 L1171.5833,664.5331 L1169.0000,665.3686 L1166.4167,666.2674 L1163.8333,667.2275 L1161.2500,668.2464 L1158.6667,669.3217 L1156.0833,670.4509 L1153.5000,671.6312 L1150.9167,672.8600 L1148.3333,674.1343 L1145.7500,675.4512 L1143.1667,676.8079 L1140.5833,678.2012 L1138.0000,679.6281 L1135.4167,681.0856 L1132.8333,682.5705 L1130.2500,684.0798 L1127.6667,685.6102 L1125.0833,687.1589 L1122.5000,688.7227 L1119.9167,690.2986 L1117.3333,691.8836 L1114.7500,693.4749 L1112.1667,695.0695 L1109.5833,696.6647 L1107.0000,698.2578 L1104.4167,699.8462 L1101.8333,701.4273 L1099.2500,702.9988 L1096.6667,704.5582 L1094.0833,706.1034 L1091.5000,707.6323 L1088.9167,709.1429 L1086.3333,710.6332 L1083.7500,712.1016 L1081.1667,713.5463 L1078.5833,714.9659 L1076.0000,716.3590 L1073.4167,717.7243 L1070.8333,719.0606 L1068.2500,720.3668 L1065.6667,721.6422 L1063.0833,722.8859 L1060.5000,724.0971 L1057.9167,725.2754 L1055.3333,726.4202 L1052.7500,727.5312 L1050.1667,728.6082 L1047.5833,729.6509 L1045.0000,730.6593 L1042.4167,731.6335 L1039.8333,732.5735 L1037.2500,733.4794 L1034.6667,734.3517 L1032.0833,735.1906 L1029.5000,735.9964 L1026.9167,736.7697 L1024.3333,737.5110 L1021.7500,738.2208 L1019.1667,738.8998 L1016.5833,739.5485 L1014.0000,740.1678 L1011.4167,740.7582 L1008.8333,741.3206 L1006.2500,741.8558 L1003.6667,742.3644 L1001.0833,742.8475 L998.5000,743.3056 L995.9167,743.7398 L993.3333,744.1508 L990.7500,744.5395 L988.1667,744.9068 L985.5833,745.2533 L983.0000,745.5801 L980.4167,745.8879 L977.8333,746.1775 L975.2500,746.4498 L972.6667,746.7055 L970.0833,746.9454 L967.5000,747.1702 L964.9167,747.3807 L962.3333,747.5776 L959.7500,747.7617 L957.1667,747.9335 L954.5833,748.0938 L952.0000,748.2431 L949.4167,748.3821 L946.8333,748.5114 L944.2500,748.6315 L941.6667,748.7430 L939.0833,748.8464 L936.5000,748.9422 L933.9167,749.0309 L931.3333,749.1129 L928.7500,749.1887 L926.1667,749.2586 L923.5833,749.3231 L921.0000,749.3825 L918.4167,749.4371 L915.8333,749.4874 L913.2500,749.5336 L910.6667,749.5759 L908.0833,749.6148 L905.5000,749.6504 L902.9167,749.6830 L900.3333,749.7127 L897.7500,749.7400 L895.1667,749.7648 L892.5833,749.7874 L890.0000,749.8081 L890.0000,450.1919" fill="url(#warm-channel)" stroke="none"/>
<path d="M890.0000,450.1919 L892.5833,450.2126 L895.1667,450.2352 L897.7500,450.2600 L900.3333,450.2873 L902.9167,450.3170 L905.5000,450.3496 L908.0833,450.3852 L910.6667,450.4241 L913.2500,450.4664 L915.8333,450.5126 L918.4167,450.5629 L921.0000,450.6175 L923.5833,450.6769 L926.1667,450.7414 L928.7500,450.8113 L931.3333,450.8871 L933.9167,450.9691 L936.5000,451.0578 L939.0833,451.1536 L941.6667,451.2570 L944.2500,451.3685 L946.8333,451.4886 L949.4167,451.6179 L952.0000,451.7569 L954.5833,451.9062 L957.1667,452.0665 L959.7500,452.2383 L962.3333,452.4224 L964.9167,452.6193 L967.5000,452.8298 L970.0833,453.0546 L972.6667,453.2945 L975.2500,453.5502 L977.8333,453.8225 L980.4167,454.1121 L983.0000,454.4199 L985.5833,454.7467 L988.1667,455.0932 L990.7500,455.4605 L993.3333,455.8492 L995.9167,456.2602 L998.5000,456.6944 L1001.0833,457.1525 L1003.6667,457.6356 L1006.2500,458.1442 L1008.8333,458.6794 L1011.4167,459.2418 L1014.0000,459.8322 L1016.5833,460.4515 L1019.1667,461.1002 L1021.7500,461.7792 L1024.3333,462.4890 L1026.9167,463.2303 L1029.5000,464.0036 L1032.0833,464.8094 L1034.6667,465.6483 L1037.2500,466.5206 L1039.8333,467.4265 L1042.4167,468.3665 L1045.0000,469.3407 L1047.5833,470.3491 L1050.1667,471.3918 L1052.7500,472.4688 L1055.3333,473.5798 L1057.9167,474.7246 L1060.5000,475.9029 L1063.0833,477.1141 L1065.6667,478.3578 L1068.2500,479.6332 L1070.8333,480.9394 L1073.4167,482.2757 L1076.0000,483.6410 L1078.5833,485.0341 L1081.1667,486.4537 L1083.7500,487.8984 L1086.3333,489.3668 L1088.9167,490.8571 L1091.5000,492.3677 L1094.0833,493.8966 L1096.6667,495.4418 L1099.2500,497.0012 L1101.8333,498.5727 L1104.4167,500.1538 L1107.0000,501.7422 L1109.5833,503.3353 L1112.1667,504.9305 L1114.7500,506.5251 L1117.3333,508.1164 L1119.9167,509.7014 L1122.5000,511.2773 L1125.0833,512.8411 L1127.6667,514.3898 L1130.2500,515.9202 L1132.8333,517.4295 L1135.4167,518.9144 L1138.0000,520.3719 L1140.5833,521.7988 L1143.1667,523.1921 L1145.7500,524.5488 L1148.3333,525.8657 L1150.9167,527.1400 L1153.5000,528.3688 L1156.0833,529.5491 L1158.6667,530.6783 L1161.2500,531.7536 L1163.8333,532.7725 L1166.4167,533.7326 L1169.0000,534.6314 L1171.5833,535.4669 L1174.1667,536.2369 L1176.7500,536.9396 L1179.3333,537.5732 L1181.9167,538.1360 L1184.5000,538.6267 L1187.0833,539.0441 L1189.6667,539.3871 L1192.2500,539.6547 L1194.8333,539.8464 L1197.4167,539.9616 L1200.0000,540.0000 L1202.5833,539.9616 L1205.1667,539.8464 L1207.7500,539.6547 L1210.3333,539.3871 L1212.9167,539.0441 L1215.5000,538.6267 L1218.0833,538.1360 L1220.6667,537.5732 L1223.2500,536.9396 L1225.8333,536.2369 L1228.4167,535.4669 L1231.0000,534.6314 L1233.5833,533.7326 L1236.1667,532.7725 L1238.7500,531.7536 L1241.3333,530.6783 L1243.9167,529.5491 L1246.5000,528.3688 L1249.0833,527.1400 L1251.6667,525.8657 L1254.2500,524.5488 L1256.8333,523.1921 L1259.4167,521.7988 L1262.0000,520.3719 L1264.5833,518.9144 L1267.1667,517.4295 L1269.7500,515.9202 L1272.3333,514.3898 L1274.9167,512.8411 L1277.5000,511.2773 L1280.0833,509.7014 L1282.6667,508.1164 L1285.2500,506.5251 L1287.8333,504.9305 L1290.4167,503.3353 L1293.0000,501.7422 L1295.5833,500.1538 L1298.1667,498.5727 L1300.7500,497.0012 L1303.3333,495.4418 L1305.9167,493.8966 L1308.5000,492.3677 L1311.0833,490.8571 L1313.6667,489.3668 L1316.2500,487.8984 L1318.8333,486.4537 L1321.4167,485.0341 L1324.0000,483.6410 L1326.5833,482.2757 L1329.1667,480.9394 L1331.7500,479.6332 L1334.3333,478.3578 L1336.9167,477.1141 L1339.5000,475.9029 L1342.0833,474.7246 L1344.6667,473.5798 L1347.2500,472.4688 L1349.8333,471.3918 L1352.4167,470.3491 L1355.0000,469.3407 L1357.5833,468.3665 L1360.1667,467.4265 L1362.7500,466.5206 L1365.3333,465.6483 L1367.9167,464.8094 L1370.5000,464.0036 L1373.0833,463.2303 L1375.6667,462.4890 L1378.2500,461.7792 L1380.8333,461.1002 L1383.4167,460.4515 L1386.0000,459.8322 L1388.5833,459.2418 L1391.1667,458.6794 L1393.7500,458.1442 L1396.3333,457.6356 L1398.9167,457.1525 L1401.5000,456.6944 L1404.0833,456.2602 L1406.6667,455.8492 L1409.2500,455.4605 L1411.8333,455.0932 L1414.4167,454.7467 L1417.0000,454.4199 L1419.5833,454.1121 L1422.1667,453.8225 L1424.7500,453.5502 L1427.3333,453.2945 L1429.9167,453.0546 L1432.5000,452.8298 L1435.0833,452.6193 L1437.6667,452.4224 L1440.2500,452.2383 L1442.8333,452.0665 L1445.4167,451.9062 L1448.0000,451.7569 L1450.5833,451.6179 L1453.1667,451.4886 L1455.7500,451.3685 L1458.3333,451.2570 L1460.9167,451.1536 L1463.5000,451.0578 L1466.0833,450.9691 L1468.6667,450.8871 L1471.2500,450.8113 L1473.8333,450.7414 L1476.4167,450.6769 L1479.0000,450.6175 L1481.5833,450.5629 L1484.1667,450.5126 L1486.7500,450.4664 L1489.3333,450.4241 L1491.9167,450.3852 L1494.5000,450.3496 L1497.0833,450.3170 L1499.6667,450.2873 L1502.2500,450.2600 L1504.8333,450.2352 L1507.4167,450.2126 L1510.0000,450.1919" fill="none" stroke="#8aa4ac" stroke-width="4" stroke-linecap="round"/>
<path d="M890.0000,749.8081 L892.5833,749.7874 L895.1667,749.7648 L897.7500,749.7400 L900.3333,749.7127 L902.9167,749.6830 L905.5000,749.6504 L908.0833,749.6148 L910.6667,749.5759 L913.2500,749.5336 L915.8333,749.4874 L918.4167,749.4371 L921.0000,749.3825 L923.5833,749.3231 L926.1667,749.2586 L928.7500,749.1887 L931.3333,749.1129 L933.9167,749.0309 L936.5000,748.9422 L939.0833,748.8464 L941.6667,748.7430 L944.2500,748.6315 L946.8333,748.5114 L949.4167,748.3821 L952.0000,748.2431 L954.5833,748.0938 L957.1667,747.9335 L959.7500,747.7617 L962.3333,747.5776 L964.9167,747.3807 L967.5000,747.1702 L970.0833,746.9454 L972.6667,746.7055 L975.2500,746.4498 L977.8333,746.1775 L980.4167,745.8879 L983.0000,745.5801 L985.5833,745.2533 L988.1667,744.9068 L990.7500,744.5395 L993.3333,744.1508 L995.9167,743.7398 L998.5000,743.3056 L1001.0833,742.8475 L1003.6667,742.3644 L1006.2500,741.8558 L1008.8333,741.3206 L1011.4167,740.7582 L1014.0000,740.1678 L1016.5833,739.5485 L1019.1667,738.8998 L1021.7500,738.2208 L1024.3333,737.5110 L1026.9167,736.7697 L1029.5000,735.9964 L1032.0833,735.1906 L1034.6667,734.3517 L1037.2500,733.4794 L1039.8333,732.5735 L1042.4167,731.6335 L1045.0000,730.6593 L1047.5833,729.6509 L1050.1667,728.6082 L1052.7500,727.5312 L1055.3333,726.4202 L1057.9167,725.2754 L1060.5000,724.0971 L1063.0833,722.8859 L1065.6667,721.6422 L1068.2500,720.3668 L1070.8333,719.0606 L1073.4167,717.7243 L1076.0000,716.3590 L1078.5833,714.9659 L1081.1667,713.5463 L1083.7500,712.1016 L1086.3333,710.6332 L1088.9167,709.1429 L1091.5000,707.6323 L1094.0833,706.1034 L1096.6667,704.5582 L1099.2500,702.9988 L1101.8333,701.4273 L1104.4167,699.8462 L1107.0000,698.2578 L1109.5833,696.6647 L1112.1667,695.0695 L1114.7500,693.4749 L1117.3333,691.8836 L1119.9167,690.2986 L1122.5000,688.7227 L1125.0833,687.1589 L1127.6667,685.6102 L1130.2500,684.0798 L1132.8333,682.5705 L1135.4167,681.0856 L1138.0000,679.6281 L1140.5833,678.2012 L1143.1667,676.8079 L1145.7500,675.4512 L1148.3333,674.1343 L1150.9167,672.8600 L1153.5000,671.6312 L1156.0833,670.4509 L1158.6667,669.3217 L1161.2500,668.2464 L1163.8333,667.2275 L1166.4167,666.2674 L1169.0000,665.3686 L1171.5833,664.5331 L1174.1667,663.7631 L1176.7500,663.0604 L1179.3333,662.4268 L1181.9167,661.8640 L1184.5000,661.3733 L1187.0833,660.9559 L1189.6667,660.6129 L1192.2500,660.3453 L1194.8333,660.1536 L1197.4167,660.0384 L1200.0000,660.0000 L1202.5833,660.0384 L1205.1667,660.1536 L1207.7500,660.3453 L1210.3333,660.6129 L1212.9167,660.9559 L1215.5000,661.3733 L1218.0833,661.8640 L1220.6667,662.4268 L1223.2500,663.0604 L1225.8333,663.7631 L1228.4167,664.5331 L1231.0000,665.3686 L1233.5833,666.2674 L1236.1667,667.2275 L1238.7500,668.2464 L1241.3333,669.3217 L1243.9167,670.4509 L1246.5000,671.6312 L1249.0833,672.8600 L1251.6667,674.1343 L1254.2500,675.4512 L1256.8333,676.8079 L1259.4167,678.2012 L1262.0000,679.6281 L1264.5833,681.0856 L1267.1667,682.5705 L1269.7500,684.0798 L1272.3333,685.6102 L1274.9167,687.1589 L1277.5000,688.7227 L1280.0833,690.2986 L1282.6667,691.8836 L1285.2500,693.4749 L1287.8333,695.0695 L1290.4167,696.6647 L1293.0000,698.2578 L1295.5833,699.8462 L1298.1667,701.4273 L1300.7500,702.9988 L1303.3333,704.5582 L1305.9167,706.1034 L1308.5000,707.6323 L1311.0833,709.1429 L1313.6667,710.6332 L1316.2500,712.1016 L1318.8333,713.5463 L1321.4167,714.9659 L1324.0000,716.3590 L1326.5833,717.7243 L1329.1667,719.0606 L1331.7500,720.3668 L1334.3333,721.6422 L1336.9167,722.8859 L1339.5000,724.0971 L1342.0833,725.2754 L1344.6667,726.4202 L1347.2500,727.5312 L1349.8333,728.6082 L1352.4167,729.6509 L1355.0000,730.6593 L1357.5833,731.6335 L1360.1667,732.5735 L1362.7500,733.4794 L1365.3333,734.3517 L1367.9167,735.1906 L1370.5000,735.9964 L1373.0833,736.7697 L1375.6667,737.5110 L1378.2500,738.2208 L1380.8333,738.8998 L1383.4167,739.5485 L1386.0000,740.1678 L1388.5833,740.7582 L1391.1667,741.3206 L1393.7500,741.8558 L1396.3333,742.3644 L1398.9167,742.8475 L1401.5000,743.3056 L1404.0833,743.7398 L1406.6667,744.1508 L1409.2500,744.5395 L1411.8333,744.9068 L1414.4167,745.2533 L1417.0000,745.5801 L1419.5833,745.8879 L1422.1667,746.1775 L1424.7500,746.4498 L1427.3333,746.7055 L1429.9167,746.9454 L1432.5000,747.1702 L1435.0833,747.3807 L1437.6667,747.5776 L1440.2500,747.7617 L1442.8333,747.9335 L1445.4167,748.0938 L1448.0000,748.2431 L1450.5833,748.3821 L1453.1667,748.5114 L1455.7500,748.6315 L1458.3333,748.7430 L1460.9167,748.8464 L1463.5000,748.9422 L1466.0833,749.0309 L1468.6667,749.1129 L1471.2500,749.1887 L1473.8333,749.2586 L1476.4167,749.3231 L1479.0000,749.3825 L1481.5833,749.4371 L1484.1667,749.4874 L1486.7500,749.5336 L1489.3333,749.5759 L1491.9167,749.6148 L1494.5000,749.6504 L1497.0833,749.6830 L1499.6667,749.7127 L1502.2500,749.7400 L1504.8333,749.7648 L1507.4167,749.7874 L1510.0000,749.8081" fill="none" stroke="#8aa4ac" stroke-width="4" stroke-linecap="round"/>
</g>
<g id="current-1" fill="none" stroke="#286b8a" stroke-width="4" stroke-linecap="round">
<path d="M890.0000,489.1420 L892.5833,489.1573 L895.1667,489.1741 L897.7500,489.1924 L900.3333,489.2126 L902.9167,489.2346 L905.5000,489.2587 L908.0833,489.2851 L910.6667,489.3138 L913.2500,489.3452 L915.8333,489.3793 L918.4167,489.4165 L921.0000,489.4570 L923.5833,489.5009 L926.1667,489.5486 L928.7500,489.6004 L931.3333,489.6564 L933.9167,489.7171 L936.5000,489.7827 L939.0833,489.8536 L941.6667,489.9302 L944.2500,490.0127 L946.8333,490.1016 L949.4167,490.1972 L952.0000,490.3001 L954.5833,490.4106 L957.1667,490.5292 L959.7500,490.6564 L962.3333,490.7925 L964.9167,490.9383 L967.5000,491.0941 L970.0833,491.2604 L972.6667,491.4379 L975.2500,491.6272 L977.8333,491.8286 L980.4167,492.0429 L983.0000,492.2707 L985.5833,492.5125 L988.1667,492.7690 L990.7500,493.0407 L993.3333,493.3284 L995.9167,493.6325 L998.5000,493.9538 L1001.0833,494.2929 L1003.6667,494.6503 L1006.2500,495.0267 L1008.8333,495.4227 L1011.4167,495.8389 L1014.0000,496.2758 L1016.5833,496.7341 L1019.1667,497.2142 L1021.7500,497.7166 L1024.3333,498.2419 L1026.9167,498.7904 L1029.5000,499.3627 L1032.0833,499.9590 L1034.6667,500.5797 L1037.2500,501.2252 L1039.8333,501.8956 L1042.4167,502.5912 L1045.0000,503.3121 L1047.5833,504.0583 L1050.1667,504.8299 L1052.7500,505.6269 L1055.3333,506.4490 L1057.9167,507.2962 L1060.5000,508.1681 L1063.0833,509.0644 L1065.6667,509.9848 L1068.2500,510.9285 L1070.8333,511.8952 L1073.4167,512.8840 L1076.0000,513.8943 L1078.5833,514.9252 L1081.1667,515.9757 L1083.7500,517.0448 L1086.3333,518.1314 L1088.9167,519.2343 L1091.5000,520.3521 L1094.0833,521.4835 L1096.6667,522.6269 L1099.2500,523.7809 L1101.8333,524.9438 L1104.4167,526.1138 L1107.0000,527.2892 L1109.5833,528.4681 L1112.1667,529.6486 L1114.7500,530.8286 L1117.3333,532.0061 L1119.9167,533.1791 L1122.5000,534.3452 L1125.0833,535.5024 L1127.6667,536.6484 L1130.2500,537.7810 L1132.8333,538.8978 L1135.4167,539.9967 L1138.0000,541.0752 L1140.5833,542.1311 L1143.1667,543.1622 L1145.7500,544.1661 L1148.3333,545.1406 L1150.9167,546.0836 L1153.5000,546.9929 L1156.0833,547.8663 L1158.6667,548.7019 L1161.2500,549.4977 L1163.8333,550.2517 L1166.4167,550.9621 L1169.0000,551.6273 L1171.5833,552.2455 L1174.1667,552.8153 L1176.7500,553.3353 L1179.3333,553.8041 L1181.9167,554.2206 L1184.5000,554.5838 L1187.0833,554.8926 L1189.6667,555.1464 L1192.2500,555.3445 L1194.8333,555.4863 L1197.4167,555.5716 L1200.0000,555.6000 L1202.5833,555.5716 L1205.1667,555.4863 L1207.7500,555.3445 L1210.3333,555.1464 L1212.9167,554.8926 L1215.5000,554.5838 L1218.0833,554.2206 L1220.6667,553.8041 L1223.2500,553.3353 L1225.8333,552.8153 L1228.4167,552.2455 L1231.0000,551.6273 L1233.5833,550.9621 L1236.1667,550.2517 L1238.7500,549.4977 L1241.3333,548.7019 L1243.9167,547.8663 L1246.5000,546.9929 L1249.0833,546.0836 L1251.6667,545.1406 L1254.2500,544.1661 L1256.8333,543.1622 L1259.4167,542.1311 L1262.0000,541.0752 L1264.5833,539.9967 L1267.1667,538.8978 L1269.7500,537.7810 L1272.3333,536.6484 L1274.9167,535.5024 L1277.5000,534.3452 L1280.0833,533.1791 L1282.6667,532.0061 L1285.2500,530.8286 L1287.8333,529.6486 L1290.4167,528.4681 L1293.0000,527.2892 L1295.5833,526.1138 L1298.1667,524.9438 L1300.7500,523.7809 L1303.3333,522.6269 L1305.9167,521.4835 L1308.5000,520.3521 L1311.0833,519.2343 L1313.6667,518.1314 L1316.2500,517.0448 L1318.8333,515.9757 L1321.4167,514.9252 L1324.0000,513.8943 L1326.5833,512.8840 L1329.1667,511.8952 L1331.7500,510.9285 L1334.3333,509.9848 L1336.9167,509.0644 L1339.5000,508.1681 L1342.0833,507.2962 L1344.6667,506.4490 L1347.2500,505.6269 L1349.8333,504.8299 L1352.4167,504.0583 L1355.0000,503.3121 L1357.5833,502.5912 L1360.1667,501.8956 L1362.7500,501.2252 L1365.3333,500.5797 L1367.9167,499.9590 L1370.5000,499.3627 L1373.0833,498.7904 L1375.6667,498.2419 L1378.2500,497.7166 L1380.8333,497.2142 L1383.4167,496.7341 L1386.0000,496.2758 L1388.5833,495.8389 L1391.1667,495.4227 L1393.7500,495.0267 L1396.3333,494.6503 L1398.9167,494.2929 L1401.5000,493.9538 L1404.0833,493.6325 L1406.6667,493.3284 L1409.2500,493.0407 L1411.8333,492.7690 L1414.4167,492.5125 L1417.0000,492.2707 L1419.5833,492.0429 L1422.1667,491.8286 L1424.7500,491.6272 L1427.3333,491.4379 L1429.9167,491.2604 L1432.5000,491.0941 L1435.0833,490.9383 L1437.6667,490.7925 L1440.2500,490.6564 L1442.8333,490.5292 L1445.4167,490.4106 L1448.0000,490.3001 L1450.5833,490.1972 L1453.1667,490.1016 L1455.7500,490.0127 L1458.3333,489.9302 L1460.9167,489.8536 L1463.5000,489.7827 L1466.0833,489.7171 L1468.6667,489.6564 L1471.2500,489.6004 L1473.8333,489.5486 L1476.4167,489.5009 L1479.0000,489.4570 L1481.5833,489.4165 L1484.1667,489.3793 L1486.7500,489.3452 L1489.3333,489.3138 L1491.9167,489.2851 L1494.5000,489.2587 L1497.0833,489.2346 L1499.6667,489.2126 L1502.2500,489.1924 L1504.8333,489.1741 L1507.4167,489.1573 L1510.0000,489.1420" fill="none" data-level="-0.74"/>
<path d="M890.0000,544.5710 L892.5833,544.5786 L895.1667,544.5870 L897.7500,544.5962 L900.3333,544.6063 L902.9167,544.6173 L905.5000,544.6294 L908.0833,544.6425 L910.6667,544.6569 L913.2500,544.6726 L915.8333,544.6897 L918.4167,544.7083 L921.0000,544.7285 L923.5833,544.7505 L926.1667,544.7743 L928.7500,544.8002 L931.3333,544.8282 L933.9167,544.8586 L936.5000,544.8914 L939.0833,544.9268 L941.6667,544.9651 L944.2500,545.0063 L946.8333,545.0508 L949.4167,545.0986 L952.0000,545.1501 L954.5833,545.2053 L957.1667,545.2646 L959.7500,545.3282 L962.3333,545.3963 L964.9167,545.4691 L967.5000,545.5470 L970.0833,545.6302 L972.6667,545.7190 L975.2500,545.8136 L977.8333,545.9143 L980.4167,546.0215 L983.0000,546.1354 L985.5833,546.2563 L988.1667,546.3845 L990.7500,546.5204 L993.3333,546.6642 L995.9167,546.8163 L998.5000,546.9769 L1001.0833,547.1464 L1003.6667,547.3252 L1006.2500,547.5134 L1008.8333,547.7114 L1011.4167,547.9195 L1014.0000,548.1379 L1016.5833,548.3670 L1019.1667,548.6071 L1021.7500,548.8583 L1024.3333,549.1209 L1026.9167,549.3952 L1029.5000,549.6813 L1032.0833,549.9795 L1034.6667,550.2899 L1037.2500,550.6126 L1039.8333,550.9478 L1042.4167,551.2956 L1045.0000,551.6560 L1047.5833,552.0292 L1050.1667,552.4150 L1052.7500,552.8134 L1055.3333,553.2245 L1057.9167,553.6481 L1060.5000,554.0841 L1063.0833,554.5322 L1065.6667,554.9924 L1068.2500,555.4643 L1070.8333,555.9476 L1073.4167,556.4420 L1076.0000,556.9472 L1078.5833,557.4626 L1081.1667,557.9879 L1083.7500,558.5224 L1086.3333,559.0657 L1088.9167,559.6171 L1091.5000,560.1760 L1094.0833,560.7417 L1096.6667,561.3135 L1099.2500,561.8905 L1101.8333,562.4719 L1104.4167,563.0569 L1107.0000,563.6446 L1109.5833,564.2341 L1112.1667,564.8243 L1114.7500,565.4143 L1117.3333,566.0031 L1119.9167,566.5895 L1122.5000,567.1726 L1125.0833,567.7512 L1127.6667,568.3242 L1130.2500,568.8905 L1132.8333,569.4489 L1135.4167,569.9983 L1138.0000,570.5376 L1140.5833,571.0656 L1143.1667,571.5811 L1145.7500,572.0830 L1148.3333,572.5703 L1150.9167,573.0418 L1153.5000,573.4964 L1156.0833,573.9332 L1158.6667,574.3510 L1161.2500,574.7488 L1163.8333,575.1258 L1166.4167,575.4810 L1169.0000,575.8136 L1171.5833,576.1228 L1174.1667,576.4077 L1176.7500,576.6677 L1179.3333,576.9021 L1181.9167,577.1103 L1184.5000,577.2919 L1187.0833,577.4463 L1189.6667,577.5732 L1192.2500,577.6722 L1194.8333,577.7432 L1197.4167,577.7858 L1200.0000,577.8000 L1202.5833,577.7858 L1205.1667,577.7432 L1207.7500,577.6722 L1210.3333,577.5732 L1212.9167,577.4463 L1215.5000,577.2919 L1218.0833,577.1103 L1220.6667,576.9021 L1223.2500,576.6677 L1225.8333,576.4077 L1228.4167,576.1228 L1231.0000,575.8136 L1233.5833,575.4810 L1236.1667,575.1258 L1238.7500,574.7488 L1241.3333,574.3510 L1243.9167,573.9332 L1246.5000,573.4964 L1249.0833,573.0418 L1251.6667,572.5703 L1254.2500,572.0830 L1256.8333,571.5811 L1259.4167,571.0656 L1262.0000,570.5376 L1264.5833,569.9983 L1267.1667,569.4489 L1269.7500,568.8905 L1272.3333,568.3242 L1274.9167,567.7512 L1277.5000,567.1726 L1280.0833,566.5895 L1282.6667,566.0031 L1285.2500,565.4143 L1287.8333,564.8243 L1290.4167,564.2341 L1293.0000,563.6446 L1295.5833,563.0569 L1298.1667,562.4719 L1300.7500,561.8905 L1303.3333,561.3135 L1305.9167,560.7417 L1308.5000,560.1760 L1311.0833,559.6171 L1313.6667,559.0657 L1316.2500,558.5224 L1318.8333,557.9879 L1321.4167,557.4626 L1324.0000,556.9472 L1326.5833,556.4420 L1329.1667,555.9476 L1331.7500,555.4643 L1334.3333,554.9924 L1336.9167,554.5322 L1339.5000,554.0841 L1342.0833,553.6481 L1344.6667,553.2245 L1347.2500,552.8134 L1349.8333,552.4150 L1352.4167,552.0292 L1355.0000,551.6560 L1357.5833,551.2956 L1360.1667,550.9478 L1362.7500,550.6126 L1365.3333,550.2899 L1367.9167,549.9795 L1370.5000,549.6813 L1373.0833,549.3952 L1375.6667,549.1209 L1378.2500,548.8583 L1380.8333,548.6071 L1383.4167,548.3670 L1386.0000,548.1379 L1388.5833,547.9195 L1391.1667,547.7114 L1393.7500,547.5134 L1396.3333,547.3252 L1398.9167,547.1464 L1401.5000,546.9769 L1404.0833,546.8163 L1406.6667,546.6642 L1409.2500,546.5204 L1411.8333,546.3845 L1414.4167,546.2563 L1417.0000,546.1354 L1419.5833,546.0215 L1422.1667,545.9143 L1424.7500,545.8136 L1427.3333,545.7190 L1429.9167,545.6302 L1432.5000,545.5470 L1435.0833,545.4691 L1437.6667,545.3963 L1440.2500,545.3282 L1442.8333,545.2646 L1445.4167,545.2053 L1448.0000,545.1501 L1450.5833,545.0986 L1453.1667,545.0508 L1455.7500,545.0063 L1458.3333,544.9651 L1460.9167,544.9268 L1463.5000,544.8914 L1466.0833,544.8586 L1468.6667,544.8282 L1471.2500,544.8002 L1473.8333,544.7743 L1476.4167,544.7505 L1479.0000,544.7285 L1481.5833,544.7083 L1484.1667,544.6897 L1486.7500,544.6726 L1489.3333,544.6569 L1491.9167,544.6425 L1494.5000,544.6294 L1497.0833,544.6173 L1499.6667,544.6063 L1502.2500,544.5962 L1504.8333,544.5870 L1507.4167,544.5786 L1510.0000,544.5710" fill="none" data-level="-0.37"/>
<path d="M890.0000,600.0000 L892.5833,600.0000 L895.1667,600.0000 L897.7500,600.0000 L900.3333,600.0000 L902.9167,600.0000 L905.5000,600.0000 L908.0833,600.0000 L910.6667,600.0000 L913.2500,600.0000 L915.8333,600.0000 L918.4167,600.0000 L921.0000,600.0000 L923.5833,600.0000 L926.1667,600.0000 L928.7500,600.0000 L931.3333,600.0000 L933.9167,600.0000 L936.5000,600.0000 L939.0833,600.0000 L941.6667,600.0000 L944.2500,600.0000 L946.8333,600.0000 L949.4167,600.0000 L952.0000,600.0000 L954.5833,600.0000 L957.1667,600.0000 L959.7500,600.0000 L962.3333,600.0000 L964.9167,600.0000 L967.5000,600.0000 L970.0833,600.0000 L972.6667,600.0000 L975.2500,600.0000 L977.8333,600.0000 L980.4167,600.0000 L983.0000,600.0000 L985.5833,600.0000 L988.1667,600.0000 L990.7500,600.0000 L993.3333,600.0000 L995.9167,600.0000 L998.5000,600.0000 L1001.0833,600.0000 L1003.6667,600.0000 L1006.2500,600.0000 L1008.8333,600.0000 L1011.4167,600.0000 L1014.0000,600.0000 L1016.5833,600.0000 L1019.1667,600.0000 L1021.7500,600.0000 L1024.3333,600.0000 L1026.9167,600.0000 L1029.5000,600.0000 L1032.0833,600.0000 L1034.6667,600.0000 L1037.2500,600.0000 L1039.8333,600.0000 L1042.4167,600.0000 L1045.0000,600.0000 L1047.5833,600.0000 L1050.1667,600.0000 L1052.7500,600.0000 L1055.3333,600.0000 L1057.9167,600.0000 L1060.5000,600.0000 L1063.0833,600.0000 L1065.6667,600.0000 L1068.2500,600.0000 L1070.8333,600.0000 L1073.4167,600.0000 L1076.0000,600.0000 L1078.5833,600.0000 L1081.1667,600.0000 L1083.7500,600.0000 L1086.3333,600.0000 L1088.9167,600.0000 L1091.5000,600.0000 L1094.0833,600.0000 L1096.6667,600.0000 L1099.2500,600.0000 L1101.8333,600.0000 L1104.4167,600.0000 L1107.0000,600.0000 L1109.5833,600.0000 L1112.1667,600.0000 L1114.7500,600.0000 L1117.3333,600.0000 L1119.9167,600.0000 L1122.5000,600.0000 L1125.0833,600.0000 L1127.6667,600.0000 L1130.2500,600.0000 L1132.8333,600.0000 L1135.4167,600.0000 L1138.0000,600.0000 L1140.5833,600.0000 L1143.1667,600.0000 L1145.7500,600.0000 L1148.3333,600.0000 L1150.9167,600.0000 L1153.5000,600.0000 L1156.0833,600.0000 L1158.6667,600.0000 L1161.2500,600.0000 L1163.8333,600.0000 L1166.4167,600.0000 L1169.0000,600.0000 L1171.5833,600.0000 L1174.1667,600.0000 L1176.7500,600.0000 L1179.3333,600.0000 L1181.9167,600.0000 L1184.5000,600.0000 L1187.0833,600.0000 L1189.6667,600.0000 L1192.2500,600.0000 L1194.8333,600.0000 L1197.4167,600.0000 L1200.0000,600.0000 L1202.5833,600.0000 L1205.1667,600.0000 L1207.7500,600.0000 L1210.3333,600.0000 L1212.9167,600.0000 L1215.5000,600.0000 L1218.0833,600.0000 L1220.6667,600.0000 L1223.2500,600.0000 L1225.8333,600.0000 L1228.4167,600.0000 L1231.0000,600.0000 L1233.5833,600.0000 L1236.1667,600.0000 L1238.7500,600.0000 L1241.3333,600.0000 L1243.9167,600.0000 L1246.5000,600.0000 L1249.0833,600.0000 L1251.6667,600.0000 L1254.2500,600.0000 L1256.8333,600.0000 L1259.4167,600.0000 L1262.0000,600.0000 L1264.5833,600.0000 L1267.1667,600.0000 L1269.7500,600.0000 L1272.3333,600.0000 L1274.9167,600.0000 L1277.5000,600.0000 L1280.0833,600.0000 L1282.6667,600.0000 L1285.2500,600.0000 L1287.8333,600.0000 L1290.4167,600.0000 L1293.0000,600.0000 L1295.5833,600.0000 L1298.1667,600.0000 L1300.7500,600.0000 L1303.3333,600.0000 L1305.9167,600.0000 L1308.5000,600.0000 L1311.0833,600.0000 L1313.6667,600.0000 L1316.2500,600.0000 L1318.8333,600.0000 L1321.4167,600.0000 L1324.0000,600.0000 L1326.5833,600.0000 L1329.1667,600.0000 L1331.7500,600.0000 L1334.3333,600.0000 L1336.9167,600.0000 L1339.5000,600.0000 L1342.0833,600.0000 L1344.6667,600.0000 L1347.2500,600.0000 L1349.8333,600.0000 L1352.4167,600.0000 L1355.0000,600.0000 L1357.5833,600.0000 L1360.1667,600.0000 L1362.7500,600.0000 L1365.3333,600.0000 L1367.9167,600.0000 L1370.5000,600.0000 L1373.0833,600.0000 L1375.6667,600.0000 L1378.2500,600.0000 L1380.8333,600.0000 L1383.4167,600.0000 L1386.0000,600.0000 L1388.5833,600.0000 L1391.1667,600.0000 L1393.7500,600.0000 L1396.3333,600.0000 L1398.9167,600.0000 L1401.5000,600.0000 L1404.0833,600.0000 L1406.6667,600.0000 L1409.2500,600.0000 L1411.8333,600.0000 L1414.4167,600.0000 L1417.0000,600.0000 L1419.5833,600.0000 L1422.1667,600.0000 L1424.7500,600.0000 L1427.3333,600.0000 L1429.9167,600.0000 L1432.5000,600.0000 L1435.0833,600.0000 L1437.6667,600.0000 L1440.2500,600.0000 L1442.8333,600.0000 L1445.4167,600.0000 L1448.0000,600.0000 L1450.5833,600.0000 L1453.1667,600.0000 L1455.7500,600.0000 L1458.3333,600.0000 L1460.9167,600.0000 L1463.5000,600.0000 L1466.0833,600.0000 L1468.6667,600.0000 L1471.2500,600.0000 L1473.8333,600.0000 L1476.4167,600.0000 L1479.0000,600.0000 L1481.5833,600.0000 L1484.1667,600.0000 L1486.7500,600.0000 L1489.3333,600.0000 L1491.9167,600.0000 L1494.5000,600.0000 L1497.0833,600.0000 L1499.6667,600.0000 L1502.2500,600.0000 L1504.8333,600.0000 L1507.4167,600.0000 L1510.0000,600.0000" fill="none" data-level="0.0"/>
<path d="M890.0000,655.4290 L892.5833,655.4214 L895.1667,655.4130 L897.7500,655.4038 L900.3333,655.3937 L902.9167,655.3827 L905.5000,655.3706 L908.0833,655.3575 L910.6667,655.3431 L913.2500,655.3274 L915.8333,655.3103 L918.4167,655.2917 L921.0000,655.2715 L923.5833,655.2495 L926.1667,655.2257 L928.7500,655.1998 L931.3333,655.1718 L933.9167,655.1414 L936.5000,655.1086 L939.0833,655.0732 L941.6667,655.0349 L944.2500,654.9937 L946.8333,654.9492 L949.4167,654.9014 L952.0000,654.8499 L954.5833,654.7947 L957.1667,654.7354 L959.7500,654.6718 L962.3333,654.6037 L964.9167,654.5309 L967.5000,654.4530 L970.0833,654.3698 L972.6667,654.2810 L975.2500,654.1864 L977.8333,654.0857 L980.4167,653.9785 L983.0000,653.8646 L985.5833,653.7437 L988.1667,653.6155 L990.7500,653.4796 L993.3333,653.3358 L995.9167,653.1837 L998.5000,653.0231 L1001.0833,652.8536 L1003.6667,652.6748 L1006.2500,652.4866 L1008.8333,652.2886 L1011.4167,652.0805 L1014.0000,651.8621 L1016.5833,651.6330 L1019.1667,651.3929 L1021.7500,651.1417 L1024.3333,650.8791 L1026.9167,650.6048 L1029.5000,650.3187 L1032.0833,650.0205 L1034.6667,649.7101 L1037.2500,649.3874 L1039.8333,649.0522 L1042.4167,648.7044 L1045.0000,648.3440 L1047.5833,647.9708 L1050.1667,647.5850 L1052.7500,647.1866 L1055.3333,646.7755 L1057.9167,646.3519 L1060.5000,645.9159 L1063.0833,645.4678 L1065.6667,645.0076 L1068.2500,644.5357 L1070.8333,644.0524 L1073.4167,643.5580 L1076.0000,643.0528 L1078.5833,642.5374 L1081.1667,642.0121 L1083.7500,641.4776 L1086.3333,640.9343 L1088.9167,640.3829 L1091.5000,639.8240 L1094.0833,639.2583 L1096.6667,638.6865 L1099.2500,638.1095 L1101.8333,637.5281 L1104.4167,636.9431 L1107.0000,636.3554 L1109.5833,635.7659 L1112.1667,635.1757 L1114.7500,634.5857 L1117.3333,633.9969 L1119.9167,633.4105 L1122.5000,632.8274 L1125.0833,632.2488 L1127.6667,631.6758 L1130.2500,631.1095 L1132.8333,630.5511 L1135.4167,630.0017 L1138.0000,629.4624 L1140.5833,628.9344 L1143.1667,628.4189 L1145.7500,627.9170 L1148.3333,627.4297 L1150.9167,626.9582 L1153.5000,626.5036 L1156.0833,626.0668 L1158.6667,625.6490 L1161.2500,625.2512 L1163.8333,624.8742 L1166.4167,624.5190 L1169.0000,624.1864 L1171.5833,623.8772 L1174.1667,623.5923 L1176.7500,623.3323 L1179.3333,623.0979 L1181.9167,622.8897 L1184.5000,622.7081 L1187.0833,622.5537 L1189.6667,622.4268 L1192.2500,622.3278 L1194.8333,622.2568 L1197.4167,622.2142 L1200.0000,622.2000 L1202.5833,622.2142 L1205.1667,622.2568 L1207.7500,622.3278 L1210.3333,622.4268 L1212.9167,622.5537 L1215.5000,622.7081 L1218.0833,622.8897 L1220.6667,623.0979 L1223.2500,623.3323 L1225.8333,623.5923 L1228.4167,623.8772 L1231.0000,624.1864 L1233.5833,624.5190 L1236.1667,624.8742 L1238.7500,625.2512 L1241.3333,625.6490 L1243.9167,626.0668 L1246.5000,626.5036 L1249.0833,626.9582 L1251.6667,627.4297 L1254.2500,627.9170 L1256.8333,628.4189 L1259.4167,628.9344 L1262.0000,629.4624 L1264.5833,630.0017 L1267.1667,630.5511 L1269.7500,631.1095 L1272.3333,631.6758 L1274.9167,632.2488 L1277.5000,632.8274 L1280.0833,633.4105 L1282.6667,633.9969 L1285.2500,634.5857 L1287.8333,635.1757 L1290.4167,635.7659 L1293.0000,636.3554 L1295.5833,636.9431 L1298.1667,637.5281 L1300.7500,638.1095 L1303.3333,638.6865 L1305.9167,639.2583 L1308.5000,639.8240 L1311.0833,640.3829 L1313.6667,640.9343 L1316.2500,641.4776 L1318.8333,642.0121 L1321.4167,642.5374 L1324.0000,643.0528 L1326.5833,643.5580 L1329.1667,644.0524 L1331.7500,644.5357 L1334.3333,645.0076 L1336.9167,645.4678 L1339.5000,645.9159 L1342.0833,646.3519 L1344.6667,646.7755 L1347.2500,647.1866 L1349.8333,647.5850 L1352.4167,647.9708 L1355.0000,648.3440 L1357.5833,648.7044 L1360.1667,649.0522 L1362.7500,649.3874 L1365.3333,649.7101 L1367.9167,650.0205 L1370.5000,650.3187 L1373.0833,650.6048 L1375.6667,650.8791 L1378.2500,651.1417 L1380.8333,651.3929 L1383.4167,651.6330 L1386.0000,651.8621 L1388.5833,652.0805 L1391.1667,652.2886 L1393.7500,652.4866 L1396.3333,652.6748 L1398.9167,652.8536 L1401.5000,653.0231 L1404.0833,653.1837 L1406.6667,653.3358 L1409.2500,653.4796 L1411.8333,653.6155 L1414.4167,653.7437 L1417.0000,653.8646 L1419.5833,653.9785 L1422.1667,654.0857 L1424.7500,654.1864 L1427.3333,654.2810 L1429.9167,654.3698 L1432.5000,654.4530 L1435.0833,654.5309 L1437.6667,654.6037 L1440.2500,654.6718 L1442.8333,654.7354 L1445.4167,654.7947 L1448.0000,654.8499 L1450.5833,654.9014 L1453.1667,654.9492 L1455.7500,654.9937 L1458.3333,655.0349 L1460.9167,655.0732 L1463.5000,655.1086 L1466.0833,655.1414 L1468.6667,655.1718 L1471.2500,655.1998 L1473.8333,655.2257 L1476.4167,655.2495 L1479.0000,655.2715 L1481.5833,655.2917 L1484.1667,655.3103 L1486.7500,655.3274 L1489.3333,655.3431 L1491.9167,655.3575 L1494.5000,655.3706 L1497.0833,655.3827 L1499.6667,655.3937 L1502.2500,655.4038 L1504.8333,655.4130 L1507.4167,655.4214 L1510.0000,655.4290" fill="none" data-level="0.37"/>
<path d="M890.0000,710.8580 L892.5833,710.8427 L895.1667,710.8259 L897.7500,710.8076 L900.3333,710.7874 L902.9167,710.7654 L905.5000,710.7413 L908.0833,710.7149 L910.6667,710.6862 L913.2500,710.6548 L915.8333,710.6207 L918.4167,710.5835 L921.0000,710.5430 L923.5833,710.4991 L926.1667,710.4514 L928.7500,710.3996 L931.3333,710.3436 L933.9167,710.2829 L936.5000,710.2173 L939.0833,710.1464 L941.6667,710.0698 L944.2500,709.9873 L946.8333,709.8984 L949.4167,709.8028 L952.0000,709.6999 L954.5833,709.5894 L957.1667,709.4708 L959.7500,709.3436 L962.3333,709.2075 L964.9167,709.0617 L967.5000,708.9059 L970.0833,708.7396 L972.6667,708.5621 L975.2500,708.3728 L977.8333,708.1714 L980.4167,707.9571 L983.0000,707.7293 L985.5833,707.4875 L988.1667,707.2310 L990.7500,706.9593 L993.3333,706.6716 L995.9167,706.3675 L998.5000,706.0462 L1001.0833,705.7071 L1003.6667,705.3497 L1006.2500,704.9733 L1008.8333,704.5773 L1011.4167,704.1611 L1014.0000,703.7242 L1016.5833,703.2659 L1019.1667,702.7858 L1021.7500,702.2834 L1024.3333,701.7581 L1026.9167,701.2096 L1029.5000,700.6373 L1032.0833,700.0410 L1034.6667,699.4203 L1037.2500,698.7748 L1039.8333,698.1044 L1042.4167,697.4088 L1045.0000,696.6879 L1047.5833,695.9417 L1050.1667,695.1701 L1052.7500,694.3731 L1055.3333,693.5510 L1057.9167,692.7038 L1060.5000,691.8319 L1063.0833,690.9356 L1065.6667,690.0152 L1068.2500,689.0715 L1070.8333,688.1048 L1073.4167,687.1160 L1076.0000,686.1057 L1078.5833,685.0748 L1081.1667,684.0243 L1083.7500,682.9552 L1086.3333,681.8686 L1088.9167,680.7657 L1091.5000,679.6479 L1094.0833,678.5165 L1096.6667,677.3731 L1099.2500,676.2191 L1101.8333,675.0562 L1104.4167,673.8862 L1107.0000,672.7108 L1109.5833,671.5319 L1112.1667,670.3514 L1114.7500,669.1714 L1117.3333,667.9939 L1119.9167,666.8209 L1122.5000,665.6548 L1125.0833,664.4976 L1127.6667,663.3516 L1130.2500,662.2190 L1132.8333,661.1022 L1135.4167,660.0033 L1138.0000,658.9248 L1140.5833,657.8689 L1143.1667,656.8378 L1145.7500,655.8339 L1148.3333,654.8594 L1150.9167,653.9164 L1153.5000,653.0071 L1156.0833,652.1337 L1158.6667,651.2981 L1161.2500,650.5023 L1163.8333,649.7483 L1166.4167,649.0379 L1169.0000,648.3727 L1171.5833,647.7545 L1174.1667,647.1847 L1176.7500,646.6647 L1179.3333,646.1959 L1181.9167,645.7794 L1184.5000,645.4162 L1187.0833,645.1074 L1189.6667,644.8536 L1192.2500,644.6555 L1194.8333,644.5137 L1197.4167,644.4284 L1200.0000,644.4000 L1202.5833,644.4284 L1205.1667,644.5137 L1207.7500,644.6555 L1210.3333,644.8536 L1212.9167,645.1074 L1215.5000,645.4162 L1218.0833,645.7794 L1220.6667,646.1959 L1223.2500,646.6647 L1225.8333,647.1847 L1228.4167,647.7545 L1231.0000,648.3727 L1233.5833,649.0379 L1236.1667,649.7483 L1238.7500,650.5023 L1241.3333,651.2981 L1243.9167,652.1337 L1246.5000,653.0071 L1249.0833,653.9164 L1251.6667,654.8594 L1254.2500,655.8339 L1256.8333,656.8378 L1259.4167,657.8689 L1262.0000,658.9248 L1264.5833,660.0033 L1267.1667,661.1022 L1269.7500,662.2190 L1272.3333,663.3516 L1274.9167,664.4976 L1277.5000,665.6548 L1280.0833,666.8209 L1282.6667,667.9939 L1285.2500,669.1714 L1287.8333,670.3514 L1290.4167,671.5319 L1293.0000,672.7108 L1295.5833,673.8862 L1298.1667,675.0562 L1300.7500,676.2191 L1303.3333,677.3731 L1305.9167,678.5165 L1308.5000,679.6479 L1311.0833,680.7657 L1313.6667,681.8686 L1316.2500,682.9552 L1318.8333,684.0243 L1321.4167,685.0748 L1324.0000,686.1057 L1326.5833,687.1160 L1329.1667,688.1048 L1331.7500,689.0715 L1334.3333,690.0152 L1336.9167,690.9356 L1339.5000,691.8319 L1342.0833,692.7038 L1344.6667,693.5510 L1347.2500,694.3731 L1349.8333,695.1701 L1352.4167,695.9417 L1355.0000,696.6879 L1357.5833,697.4088 L1360.1667,698.1044 L1362.7500,698.7748 L1365.3333,699.4203 L1367.9167,700.0410 L1370.5000,700.6373 L1373.0833,701.2096 L1375.6667,701.7581 L1378.2500,702.2834 L1380.8333,702.7858 L1383.4167,703.2659 L1386.0000,703.7242 L1388.5833,704.1611 L1391.1667,704.5773 L1393.7500,704.9733 L1396.3333,705.3497 L1398.9167,705.7071 L1401.5000,706.0462 L1404.0833,706.3675 L1406.6667,706.6716 L1409.2500,706.9593 L1411.8333,707.2310 L1414.4167,707.4875 L1417.0000,707.7293 L1419.5833,707.9571 L1422.1667,708.1714 L1424.7500,708.3728 L1427.3333,708.5621 L1429.9167,708.7396 L1432.5000,708.9059 L1435.0833,709.0617 L1437.6667,709.2075 L1440.2500,709.3436 L1442.8333,709.4708 L1445.4167,709.5894 L1448.0000,709.6999 L1450.5833,709.8028 L1453.1667,709.8984 L1455.7500,709.9873 L1458.3333,710.0698 L1460.9167,710.1464 L1463.5000,710.2173 L1466.0833,710.2829 L1468.6667,710.3436 L1471.2500,710.3996 L1473.8333,710.4514 L1476.4167,710.4991 L1479.0000,710.5430 L1481.5833,710.5835 L1484.1667,710.6207 L1486.7500,710.6548 L1489.3333,710.6862 L1491.9167,710.7149 L1494.5000,710.7413 L1497.0833,710.7654 L1499.6667,710.7874 L1502.2500,710.8076 L1504.8333,710.8259 L1507.4167,710.8427 L1510.0000,710.8580" fill="none" data-level="0.74"/>
</g>
<g id="speed-arrows-1" stroke="#286b8a" stroke-width="6" stroke-linecap="round">
<path d="M982.8333,600.0 H1016.1667" fill="none" data-center="-195.0" data-length="44.333366"/>
<polygon points="1027.1667,600.0000 1012.1667,606.3000 1012.1667,593.7000" fill="#286b8a"/>
<path d="M1147.5000,600.0 H1241.5000" fill="none" data-center="0.0" data-length="105.000000"/>
<polygon points="1252.5000,600.0000 1237.5000,606.3000 1237.5000,593.7000" fill="#286b8a"/>
<path d="M1372.8333,600.0 H1406.1667" fill="none" data-center="195.0" data-length="44.333366"/>
<polygon points="1417.1667,600.0000 1402.1667,606.3000 1402.1667,593.7000" fill="#286b8a"/>
</g>
<g id="streamline-arrows-1">
<polygon points="1293.0000,527.2892 1284.1711,536.8523 1279.9904,527.6801" fill="#286b8a"/>
<polygon points="1293.0000,563.6446 1282.4199,571.2250 1280.1801,561.3970" fill="#286b8a"/>
<polygon points="1293.0000,636.3554 1280.1801,638.6030 1282.4199,628.7750" fill="#286b8a"/>
<polygon points="1293.0000,672.7108 1279.9904,672.3199 1284.1711,663.1477" fill="#286b8a"/>
</g>
<g id="heating-symbol" stroke="#c2854c" stroke-linecap="round" stroke-linejoin="round">
<path d="M1188 423 V365 A12 12 0 0 1 1212 365 V423 A23 23 0 1 1 1188 423Z" fill="#f1f5f3" stroke-width="4"/>
<path d="M1200 378 V438" fill="none" stroke-width="7"/>
<circle cx="1200" cy="441" r="13" fill="#c2854c" stroke="none"/>
<path d="M1225 370 H1236 M1225 387 H1236 M1225 404 H1236" fill="none" stroke-width="3"/>
</g>
</g>
</svg>
